<svg width="64" height="45" fill="none" xmlns="http://www.w3.org/2000/svg"><path d="M52.5 21.9h-13v5.3l5.3.1a8.5 8.5 0 01-4.8 2.5 8 8 0 01-7.4-2.8l-4.4 4c.4.6.9 1 1.4 1.5l.8.8h-6.1a916.2 916.2 0 015-4.5c1.8-1.6 3.6-3.2 5.1-5.1 2.1-2.7 3.3-5.7 2.8-9.2-.4-3.5-1.9-6.3-5-8.1A12 12 0 0024 5a10 10 0 00-6.2 3.6v8.7h3.4l.2-1.9c0-.8.4-1.6.8-2.3 1-1.9 3.1-2.7 5.5-2.2 1.8.4 3.1 2 3.3 4 .3 2.3-.4 4.3-2 5.9l-5 4.7a699.2 699.2 0 00-6.3 6v7.7h19.6v-5.4H39V36c7.8.4 14.6-7.5 13.5-14.2zM10.1 0s-.4 4-2.5 6.6A11.5 11.5 0 010 10.2V16h8.5v28.4h7.7V0h-6z" fill="#4DB84D"/><path d="M60.9 14.8c-2.7-2.5-7.9-3-10-1.9.8 1 1.5 2.5 2.2 3.8l.3.6c3.6-.2 5.8 2 5.8 4.6 0 3-2 5.2-6 5-.6 1.5-1.4 3-2.5 4.3 3.8 1.8 9.2.4 11.8-3.6 2.5-4 1.8-9.6-1.6-12.8z" fill="#4DB84D"/><path d="M51.9 17.7h-6.5a7.2 7.2 0 00-6.7-3.4c-.3-2.1-1.3-4-2.6-5.8 5.2-1.8 14 1.9 15.8 9.2z" fill="#4DB84D"/></svg>