<?xml version="1.0" encoding="utf-8"?>
<!-- Generator: Adobe Illustrator 24.0.2, SVG Export Plug-In . SVG Version: 6.00 Build 0)  -->
<svg version="1.1" id="Layer_1" xmlns="http://www.w3.org/2000/svg" xmlns:xlink="http://www.w3.org/1999/xlink" x="0px" y="0px"
	 viewBox="0 0 232 42" style="enable-background:new 0 0 232 42;" xml:space="preserve">
<style type="text/css">
	.st0{fill:#1B2B58;}
	.st1{fill:#D13438;}
	.st2{fill:#122148;}
	.st3{fill:#FFFFFF;}
</style>
<g>
	<g>
		<path class="st0" d="M114.8,27.7c-1.6,2.7-4.4,3.8-7.7,3.8c-3.8,0-6.3-2.4-6.3-5.6s2.7-5.2,7.2-5.2h6.8v-1.9
			c0-3.2-1.9-5.2-5.8-5.2c-2.4,0-4.4,1-6.5,2.5l-0.7-1.2c2.3-1.7,4.5-2.7,7.4-2.7c4.5,0,7,2.5,7.1,6.5l0.1,12.8h-1.5
			C114.9,31.5,114.8,27.7,114.8,27.7z M114.8,25.3v-3.1h-6.7c-3.8,0-5.8,1.3-5.8,3.8s2,4.3,5.1,4.3
			C110.9,30.2,113.6,28.6,114.8,25.3 M137.1,19.8v11.7h-1.6V20.1c0-3.9-2.3-6.3-6.3-6.3c-4.4,0.1-7.2,2.9-7.5,7.3v10.4h-1.5V12.3
			h1.6v4.9c1.3-3.2,4-4.9,7.9-4.9C134.3,12.3,137.1,15.1,137.1,19.8 M158.1,31.5h-1.5v-5c-1.4,3.2-4.4,5.1-8.2,5.1
			c-5.5,0-9.4-4.1-9.4-9.7c0-5.7,3.9-9.7,9.3-9.7c3.8,0,6.8,2,8.2,5.1V4.2h1.5L158.1,31.5L158.1,31.5z M156.5,21.9
			c0-4.8-3.4-8.3-8-8.3s-8,3.5-8,8.3s3.4,8.3,8,8.3C153.2,30.2,156.5,26.7,156.5,21.9"/>
		<path class="st1" d="M183.9,21.7c0,6.1-3.8,10.1-9.6,10.1c-2.7,0-4.9-1-6.4-2.9v2.7h-6.7V4.1h6.7v10.1c1.5-1.8,3.6-2.8,6.2-2.8
			C180,11.4,183.9,15.5,183.9,21.7 M177.2,21.5c0-3-1.9-5.2-4.7-5.2c-2.7,0-4.6,2.1-4.6,5.2s1.9,5.2,4.6,5.2
			C175.3,26.7,177.2,24.6,177.2,21.5 M190.4,5.9c0,2-1.5,3.4-3.5,3.4s-3.5-1.4-3.5-3.4s1.5-3.4,3.5-3.4S190.4,3.9,190.4,5.9
			 M183.6,11.6h6.6v19.9h-6.6V11.6z M199.7,26.1v5.4H193V4.1h6.7v14.5l6.9-7h7.5l-7.6,7.7l7.9,12.3h-7.9l-4.5-7.7L199.7,26.1
			L199.7,26.1z M232,23.3h-14.6c0.7,2.4,2.4,3.7,4.9,3.7c1.8,0,3.6-0.7,5-2l3.5,3.3c-2.1,2.2-5.2,3.5-9,3.5c-6.8,0-11-4.1-11-10.1
			c0-6.2,4.4-10.2,10.8-10.2C228.8,11.4,232.4,16,232,23.3 M225.6,19.9c0-2.4-1.6-4-4-4c-2.3,0-3.9,1.6-4.3,4H225.6z"/>
		<path class="st2" d="M66.2,15.9l-4.8,2.8c-1-1.3-2.4-2.1-4.2-2.1c-2.6,0-4.4,2-4.4,5c0,3.1,1.8,5.1,4.4,5.1c1.9,0,3.3-0.7,4.2-2.3
			l4.9,2.7c-1.7,2.9-5,4.6-9.4,4.6c-6.4,0.1-10.7-4-10.7-10.1S50.6,11.4,57,11.4C61.1,11.4,64.4,13,66.2,15.9 M84.1,18.5v13h-6.5
			v-2.3c-1.3,1.7-3.5,2.6-6.4,2.6c-4.4,0-7.1-2.6-7.1-6.2c0-3.8,2.8-6,8-6h5.5v-0.3c0-2-1.3-3.1-4-3.1c-1.7,0-4,0.6-6.2,1.7
			l-1.9-4.2c3.2-1.4,6.2-2.3,9.6-2.3C80.7,11.3,84.1,14,84.1,18.5 M77.5,24.8V23h-4.2c-2,0-3,0.7-3,2.1s1.1,2.4,2.9,2.4
			C75.3,27.5,77.1,26.4,77.5,24.8 M91.9,15c1.4-2.3,3.8-3.6,6.7-3.7v5.8c-3.9-0.3-6.4,1.4-6.7,4.2v10.2h-6.7V11.6h6.7
			C91.9,11.6,91.9,15,91.9,15z"/>
	</g>
	<g>
		<path class="st2" d="M19.4,1.7C30,1.7,38.7,10.3,38.7,21s-8.6,19.3-19.3,19.3C8.8,40.3,0.2,31.6,0.2,21S8.8,1.7,19.4,1.7"/>
		<path class="st1" d="M19.5,37.8c-9.3,0-16.9-7.5-16.9-16.9S10.2,4.1,19.5,4.1S36.4,11.6,36.4,21S28.8,37.8,19.5,37.8 M19.5,36.2
			c8.4,0,15.2-6.8,15.2-15.2S27.9,5.8,19.5,5.8C11.2,5.8,4.4,12.6,4.4,21S11.2,36.2,19.5,36.2"/>
		<path class="st3" d="M28.7,18.4c-1.2-1.1-2.3-1.7-3.9-1.7c-0.6,0-1.3,0.1-1.3,0.2v-6c-1,0-2,0.3-2.8,0.9c-0.8,0.6-1.2,1.2-1.2,1.7
			v6.3l-3.9,3.7c-0.4,0.4-0.9,0.6-1.5,0.6c-0.5,0-1-0.2-1.4-0.6s-0.6-0.8-0.6-1.3s0.2-1,0.6-1.4c0.4-0.4,0.8-0.6,1.3-0.6
			c0.6,0,1,0.2,1.4,0.6l0.3,0.3l2.7-2.7L18.2,18c-1.1-1.1-2.5-1.7-4.1-1.7s-3,0.6-4.1,1.7s-1.7,2.5-1.7,4.1S8.9,25,10,26.2
			c1.1,1.1,2.5,1.7,4.1,1.7s2.9-0.6,4.1-1.7l1-1l4.1-4.1c0.4-0.4,0.8-0.6,1.4-0.6c0.5,0,1,0.2,1.3,0.6c0.4,0.4,0.6,0.8,0.6,1.3
			s-0.2,1-0.6,1.4s-0.8,0.6-1.3,0.6c-0.6,0-1-0.2-1.4-0.6L23,23.5l-2.7,2.7l0.3,0.3c1.1,1.1,2.5,1.7,4.1,1.7s3-0.6,4.1-1.7
			s1.7-2.5,1.7-4.1C30.5,20.9,29.9,19.5,28.7,18.4"/>
	</g>
</g>
</svg>
