<?xml version="1.0" encoding="UTF-8"?> <svg xmlns="http://www.w3.org/2000/svg" id="b048e223-be20-453a-b982-26b0287ce373" data-name="Layer 1" viewBox="0 0 470.52 596.13"><defs><style>.bc718455-5364-406f-92e3-0e30324f6260{fill:#fff;}</style></defs><title>Deadhaus_Logo_White_Final</title><path class="bc718455-5364-406f-92e3-0e30324f6260" d="M1370.22,911.63c8.32-38.56,6.56-82.41,6.56-82.41a139.39,139.39,0,0,0-13.17-38.47l44.68-161.86s-20.84,7.42-16.24,26.14c0,0-.36,9.89-4.24,7.06s-21.2-12.72-25.43,4.94c0,0,13.77-13.06,20.48,3.54s-20.84,53.33-33.55,47c0,0-23-17.31-17-33.21,0,0,3.89-9.89,12-12.71,0,0-11.3-11.31-10.95-24,0,0-6,20.48-15.89,21.9,0,0,9.18,11,5.65,19.42s-19.78,19.78-32.5,16.61c0,0-1.76-6.36,2.83-10.25,0,0-29.67-26.84-25.43-57.22,4.12-29.53,24.59-11.66,17.29-5.77,3.11-2.23,15.22-11.9,2.49-19.66,0,0-6.71-4.24-15.55,7.42,0,0-7.77,1.06-1.06-9.54s5-12-6-34.26c-11,22.25-12.72,23.66-6,34.26s-1.06,9.54-1.06,9.54c-8.83-11.66-15.55-7.42-15.55-7.42-12.73,7.76-.62,17.43,2.49,19.66-7.3-5.89,13.17-23.76,17.29,5.77,4.24,30.38-25.43,57.22-25.43,57.22,4.59,3.89,2.83,10.25,2.83,10.25-12.72,3.17-29-8.13-32.5-16.61s5.65-19.42,5.65-19.42c-9.89-1.42-15.89-21.9-15.89-21.9.35,12.71-11,24-11,24,8.12,2.82,12,12.71,12,12.71,6,15.9-17,33.21-17,33.21-12.71,6.35-40.26-30.38-33.55-47s20.49-3.54,20.49-3.54c-4.24-17.66-21.55-7.77-25.44-4.94s-4.24-7.06-4.24-7.06c4.6-18.72-16.24-26.14-16.24-26.14l45,163.06a140,140,0,0,0-12.54,37.27s-1.76,43.85,6.55,82.41c0,0,15.39-20.47,14.22-65,0,0,10.79,57-13.46,71.8-16.24,9.89-4.47,42.19,12.66,47.23s32.09-1.37,37.28,12.09c5.26,13.62,2,33.26,2,33.26s22.17,9.57,41.82,12.59c4.1.63,7.37,1,10,1.13,2.6-.15,5.87-.5,10-1.13,19.65-3,41.82-12.59,41.82-12.59s-2-21.68,2-33.26c4.73-13.63,20.16-7,37.29-12.09s25.88-33.57,12.66-47.23c-24.25-25-12.29-73.16-12.29-73.16A250.75,250.75,0,0,0,1370.22,911.63ZM1265.73,679.55l12.93,23.51-13.42,25.57-13.42-25.57Zm-43.24,253.36c-12.59,1.51-36.27-10.08-36.27-10.08s5.54-31.24,2.52-38.79c0,0,18.13-1.52,35.26,8.06s28.22,11.59,28.22,11.59l-4.53,10.07S1235.09,931.4,1222.49,932.91Zm45.14,36.78-1.91-1.06-1.91,1.06-19.65-2.52,1.51-18.14c7.56-3.52,14.61-24.69,14.61-24.69l5.44,7.72,5.44-7.72s7,21.17,14.61,24.69l1.51,18.14Zm41.31-36.78c-12.59-1.51-25.19-19.15-25.19-19.15l-4.53-10.07s11.08-2,28.21-11.59S1342.7,884,1342.7,884c-3,7.55,2.52,38.79,2.52,38.79S1321.54,934.42,1308.94,932.91Z" transform="translate(-1030 -535.96)"></path><path class="bc718455-5364-406f-92e3-0e30324f6260" d="M1245.12,632.3a4.92,4.92,0,0,0,.69.47Z" transform="translate(-1030 -535.96)"></path><path class="bc718455-5364-406f-92e3-0e30324f6260" d="M1285.36,632.3l-.69.47A4.92,4.92,0,0,0,1285.36,632.3Z" transform="translate(-1030 -535.96)"></path><path class="bc718455-5364-406f-92e3-0e30324f6260" d="M1473,536H1057.48A27.51,27.51,0,0,0,1030,563.44V946a27.3,27.3,0,0,0,2.46,11.37c32.79,72.14,118.32,157.51,228.64,174.46a27.64,27.64,0,0,0,4.16.31,28,28,0,0,0,4.17-.31c110.3-17,195.84-102.32,228.62-174.45a27.24,27.24,0,0,0,2.47-11.38V563.44A27.51,27.51,0,0,0,1473,536Zm13.74,410a13.8,13.8,0,0,1-1.23,5.69c-31.31,68.88-113,150.38-218.2,166.55a13.73,13.73,0,0,1-4.18,0c-105.25-16.17-186.89-97.67-218.2-166.55a13.8,13.8,0,0,1-1.23-5.69V563.44a13.74,13.74,0,0,1,13.74-13.74H1473a13.74,13.74,0,0,1,13.74,13.74Z" transform="translate(-1030 -535.96)"></path></svg> 