<?xml version="1.0" encoding="utf-8"?>
<!-- Generator: Adobe Illustrator 16.0.0, SVG Export Plug-In . SVG Version: 6.00 Build 0)  -->
<!DOCTYPE svg PUBLIC "-//W3C//DTD SVG 1.0//EN" "http://www.w3.org/TR/2001/REC-SVG-20010904/DTD/svg10.dtd">
<svg version="1.0" id="Layer_1" xmlns="http://www.w3.org/2000/svg" xmlns:xlink="http://www.w3.org/1999/xlink" x="0px" y="0px"
	 width="800px" height="800px" viewBox="0 0 800 800" enable-background="new 0 0 800 800" xml:space="preserve">
<g>
	<path d="M335.914,434.453c-29.472,0-58.528,0-88.416,0c0.415,2.076,0.415,4.15,0.83,6.227c0.831,5.396,2.491,10.793,5.397,15.773
		c5.396,9.133,13.698,14.113,24.076,15.359c6.227,0.83,12.453,0.416,18.68-1.246c8.302-2.49,14.943-7.057,19.509-14.527
		c0.415-0.83,1.246-1.662,1.661-2.906c5.396,2.906,10.377,5.396,15.773,8.303c-0.415,0.414-0.415,0.83-0.415,1.244
		c-7.887,14.529-19.925,23.66-36.114,26.982c-11.208,2.074-22,2.074-32.793-1.66c-15.774-5.396-26.151-16.604-31.547-31.963
		c-3.321-9.133-4.151-19.096-3.736-28.643c0.415-9.131,2.491-17.434,7.057-25.32c8.302-14.114,19.924-23.661,36.113-26.982
		c14.113-2.49,28.227-1.245,40.68,7.057c12.453,7.887,19.924,19.509,22.416,34.453C336.33,422.416,336.33,428.643,335.914,434.453
		C335.914,433.623,335.914,433.623,335.914,434.453z M317.235,420.756c0-0.416,0-0.416,0-0.416c0-0.83,0-1.66-0.416-2.49
		c-2.49-12.869-9.547-21.585-22-25.322c-6.227-1.66-12.453-2.075-18.68-1.245c-13.283,2.075-24.075,11.623-27.396,24.49
		c-0.416,1.246-0.416,2.906-0.831,4.566C271.159,420.756,293.989,420.756,317.235,420.756z"/>
	<path d="M137.082,486.34c-6.227,0-12.037,0-18.264,0c0-0.83,0-2.074,0-2.904c0-17.434,0-34.869,0-52.303
		c0-15.773-7.887-27.396-22-34.039c-22-9.962-47.736,4.152-51.472,27.812c-3.321,20.34,10.377,39.02,30.302,42.34
		c15.358,2.49,27.812-3.32,36.944-15.773c0.415-0.83,0.83-1.246,1.66-2.076c0,0.416,0,0.83,0,1.66c0,7.473,0,15.359,0,22.83
		c0,1.246-0.415,2.492-1.66,3.322c-32.377,22-76.378,4.566-85.096-33.623c-6.642-30.303,12.038-59.775,41.925-66.416
		c32.792-7.472,61.85,14.943,66.831,44.83c0.83,4.566,0.83,8.717,0.83,13.283c0,9.547,0,19.094,0,28.643c0,6.641,0,13.697,0,20.34
		C137.082,484.682,137.082,485.51,137.082,486.34z"/>
	<path d="M712.41,523.699c-7.058,0-13.699,0-20.755,0c0.414-1.244,0.829-2.076,1.244-2.906
		c5.396-12.451,10.794-24.904,16.605-37.357c0.83-1.66,0.83-2.906,0-4.566c-14.944-33.207-29.888-66.416-44.831-99.624
		c-0.416-0.83-0.831-1.66-1.246-2.906c0.83,0,1.661,0,2.491,0c5.396,0,10.377,0,15.773,0c2.076,0,2.906,0.416,3.736,2.491
		c8.302,19.51,17.02,39.02,25.32,58.529c2.906,6.227,5.397,12.867,8.303,19.094c0.415,0.83,0.83,1.662,1.245,2.906
		c5.812-14.113,11.208-27.813,16.604-41.51c5.396-13.699,10.793-27.397,16.605-41.095c6.641,0,13.697,0,20.339,0c0,0,0,0,0,0.415
		c0,0,0,0,0,0.415c-20.339,48.567-40.265,96.718-60.604,145.284C712.825,522.869,712.41,523.285,712.41,523.699z"/>
	<path d="M345.046,467.246c5.397-3.32,10.378-6.643,15.774-9.963c0.415,0.832,0.831,1.66,1.246,2.076
		c4.566,8.717,11.623,13.283,21.584,13.697c3.737,0,7.057,0,10.378-1.244c1.246-0.414,2.491-0.83,3.736-1.246
		c8.303-3.736,9.963-11.207,7.472-18.678c-0.83-2.492-2.49-4.566-4.981-5.813c-3.321-2.076-6.642-3.736-10.378-5.396
		c-3.735-1.66-7.471-2.906-11.208-4.15c-6.227-2.49-11.623-5.396-17.019-9.547c-5.396-4.566-9.547-10.379-10.792-17.436
		c-2.906-17.849,6.227-30.717,22.415-34.453c9.132-2.49,18.68-2.49,27.812,0.831c8.718,2.906,16.189,9.962,19.511,18.68
		c-4.981,2.906-9.963,6.227-15.359,9.132c-0.83-1.66-1.66-2.906-2.49-4.566c-2.906-4.566-6.643-7.472-12.039-8.303
		c-3.735-0.83-7.887-0.83-11.623,0.416c-4.566,1.245-8.302,4.151-9.547,9.131c-1.245,4.982,0,9.962,3.736,13.699
		c2.075,1.66,4.566,3.32,7.056,4.566c3.737,1.66,7.887,3.32,12.039,4.566c6.227,2.074,12.868,4.98,18.265,8.717
		c5.396,3.32,9.963,7.887,12.038,14.113c4.566,11.623,3.32,30.303-14.943,39.85c-4.981,2.49-9.963,4.15-15.359,4.566
		c-8.718,1.244-17.02,0.83-25.321-1.66c-9.962-3.322-17.849-9.549-22-19.096C345.461,468.492,345.046,468.076,345.046,467.246z"/>
	<path d="M508.597,393.773l-0.415,0.415c-4.981,2.906-9.548,5.812-14.528,9.132c-0.416-0.414-0.831-0.83-0.831-1.244
		c-0.415-0.83-0.83-1.662-1.66-2.906c-4.151-6.643-9.962-9.547-17.85-9.133c-2.49,0-4.98,0.415-7.057,1.246
		c-8.717,2.905-12.037,13.283-6.227,20.756c1.661,2.074,3.321,3.734,5.812,4.98c4.151,2.49,9.133,4.15,13.698,5.811
		c5.396,1.662,11.208,3.736,16.189,6.643c2.49,1.244,4.565,2.904,6.642,4.15c5.812,4.566,9.547,10.377,10.792,17.85
		c1.246,8.303,0.415,15.773-4.565,22.83c-4.151,6.643-10.378,10.793-17.85,13.283s-14.944,2.906-22.415,2.49
		c-5.396-0.414-10.378-1.244-15.359-3.32c-9.547-3.736-16.604-10.793-19.924-19.51c5.396-3.32,10.377-6.643,15.772-9.963
		c0.416,0.832,0.831,1.246,0.831,1.66c4.566,9.549,12.038,13.699,22.415,14.113c2.906,0,6.227-0.414,9.133-0.828
		c1.245-0.416,2.905-0.83,4.15-1.246c8.303-3.736,9.963-11.207,7.472-18.68c-0.83-2.906-2.905-4.98-5.396-6.641
		c-3.321-1.662-6.642-3.322-9.963-4.982s-6.642-2.49-9.963-3.736c-5.811-2.074-11.207-4.98-16.188-8.717
		c-5.396-4.15-9.962-9.133-11.622-15.773c-2.906-10.793-1.246-20.755,6.227-29.057c3.735-4.151,8.716-6.642,14.112-8.303
		c8.303-2.075,17.02-2.49,25.321-0.83c10.793,2.491,18.265,9.132,22.831,19.094C508.597,393.358,508.597,393.358,508.597,393.773z"
		/>
	<path d="M533.502,276.716c6.227,0,12.453,0,18.68,0c0,70.152,0,139.888,0,210.04c-6.227,0-12.453,0-18.68,0
		C533.502,416.604,533.502,346.452,533.502,276.716z"/>
	<path d="M643.919,486.34c-6.227,0-12.453,0-18.68,0c0-69.736,0-139.888,0-210.04c6.227,0,12.453,0,18.68,0
		C643.919,346.452,643.919,416.604,643.919,486.34z"/>
	<path d="M157.836,486.756c0-36.943,0-73.473,0-110.001c6.227-0.416,12.453,0,18.68,0c0,6.226,0,12.038,0,17.849h0.415
		c0.416-0.416,0.416-0.831,0.831-1.246c1.246-2.491,2.49-5.396,4.151-7.887c4.981-7.472,12.038-10.793,20.755-11.623
		c4.15-0.416,8.302-0.416,12.452,0.415c1.246,0.415,2.076,0.83,3.736,1.245c-1.245,6.227-2.906,12.453-4.566,18.679
		c-4.566-2.49-9.547-2.905-14.528-2.075c-6.642,1.245-11.624,4.566-15.359,9.963c-3.321,4.98-4.981,10.791-6.227,16.604
		c-1.246,6.641-1.661,13.697-1.661,20.34c0,14.943,0,29.887,0,44.83c0,0.832,0,2.076,0,3.32
		C170.29,486.756,164.063,486.756,157.836,486.756z"/>
	<path d="M118.403,276.716c0.83,0,1.245,0,2.075,0c5.396,0,11.208,0,16.604,0l0.416,0.415l0,0c0,0.415,0,0.83,0,0.83
		c0,43.17,0,85.926,0,129.096c0,0,0,0.416-0.416,0.416c-0.415-0.416-0.415-0.832-0.83-1.246c-3.736-8.302-9.132-15.359-16.189-21.17
		c-1.245-0.831-1.66-1.66-1.66-3.321c0-34.453,0-68.907,0-102.945C118.403,277.96,118.403,277.546,118.403,276.716z"/>
	<path d="M579.578,376.339c6.227,0,12.868,0,19.095,0l0,0l0,0c0,36.114,0,71.811,0,107.926c0,0.416,0,1.244,0,1.66
		c-6.642,0-12.868,0-19.51,0C579.578,449.813,579.578,413.283,579.578,376.339z"/>
	<path d="M602.408,354.339c0.415,6.227-5.812,13.284-13.282,13.284c-7.473,0-13.284-5.812-13.284-13.284
		c0-7.471,5.812-13.283,13.284-13.283C597.013,341.056,602.823,348.113,602.408,354.339z"/>
</g>
</svg>
