<svg xmlns="http://www.w3.org/2000/svg" viewBox="0 0 144.429 60.625"><defs><style>.a{fill:#fff}</style></defs><path class="a" d="M140.984 28.796l-2.254 5.444-1.276 3.445-1.191-3.487-1.871-5.359h-3.572l4.976 12.248-2.339 5.4h3.36l7.613-17.65h-3.446zm-18.415 2.424c4.848 0 4.848 7.528 0 7.528a3.764 3.764 0 010-7.528m3.658-.723a4.576 4.576 0 00-3.955-2c-3.615-.043-6.464 2.212-6.464 6.507 0 4.38 2.722 6.635 6.422 6.592a4.731 4.731 0 004.04-2.212l.17 1.829h2.892V28.796h-2.977zm-22.5-1.744l-2.678 9.354-2.849-9.356h-3.446l4.338 12.5h3.572l1.276-3.7 1.106-4.168 1.106 4.168 1.276 3.7H111l4.338-12.5h-3.4l-2.854 9.356-2.722-9.356zM90.246 41.214h3.062V23.607h-3.062zm-11.27-7.655a3.372 3.372 0 013.487-2.424c1.786 0 3.02.808 3.232 2.424zm9.654 2.548c.468-5.1-2.126-7.7-6.294-7.7a6.206 6.206 0 00-6.592 6.507c0 4 2.552 6.635 6.847 6.635a7.7 7.7 0 005.359-2l-1.956-1.956a5.229 5.229 0 01-3.317 1.148c-2.169 0-3.487-1.106-3.7-2.637h9.654zm-24.114-2.552a3.372 3.372 0 013.487-2.424c1.786 0 3.02.808 3.232 2.424zm9.654 2.552c.468-5.1-2.126-7.7-6.294-7.7a6.206 6.206 0 00-6.592 6.513c0 4 2.552 6.635 6.847 6.635a7.7 7.7 0 005.359-2l-1.956-1.956a5.229 5.229 0 01-3.317 1.148c-2.169 0-3.487-1.106-3.7-2.637h9.654zm48.398-17.22h-13.992a1.234 1.234 0 110-2.467h13.992a1.234 1.234 0 011.233 1.233 1.262 1.262 0 01-1.233 1.234zm-32.79 36.32H75.786a1.234 1.234 0 010-2.467h13.992a1.234 1.234 0 010 2.467zM5.742 51.974a2.939 2.939 0 10-1.4-3.913 2.959 2.959 0 001.4 3.913m17.99 8.378a2.939 2.939 0 10-1.4-3.913 2.959 2.959 0 001.4 3.913m7.186-5.486a9.35 9.35 0 01-3.743-.808l-17.65-8.251c-5.444-2.509-5.359-7.825-3.955-10.8L19.01 6.17a7.639 7.639 0 015.529-4.593 9.187 9.187 0 015.316.638l17.65 8.251c5.4 2.509 5.316 7.868 3.955 10.845L38.021 50.145a7.639 7.639 0 01-5.529 4.593 10.659 10.659 0 01-1.574.128zM26.112 3.873a9.676 9.676 0 00-1.106.085 5.283 5.283 0 00-3.784 3.228L7.74 36.025c-.085.213-2.382 5.231 2.764 7.613l17.692 8.248a6.415 6.415 0 003.828.468 5.283 5.283 0 003.785-3.232l13.439-28.836c.085-.213 2.382-5.231-2.764-7.613L28.792 4.426a6.782 6.782 0 00-2.68-.553z"/><path class="a" d="M32.195 40.364a13.4 13.4 0 01-4.423-.68 10.581 10.581 0 01-5.486-4.083c-1.191.3-2.467.553-3.828.808a95.526 95.526 0 01-17.267 1.36 1.214 1.214 0 11.042-2.428 85.781 85.781 0 0019.861-1.956 15.379 15.379 0 01-.553-1.489c-2.977-9.441 1.4-14.077 3.445-15.651 3.232-2.467 7.613-2.849 10.632-.893 2.849 1.829 3.955 5.189 3.062 9.144-1.062 4.645-5.358 8.085-12.843 10.339a7.92 7.92 0 003.7 2.467c7.74 2.594 21.137-4.891 27.134-9.229a1.216 1.216 0 111.446 1.956A81.232 81.232 0 0146.4 36.323c-5.487 2.718-10.25 4.041-14.205 4.041zm-2-23.774a7.789 7.789 0 00-4.721 1.659c-1.616 1.233-5.1 4.976-2.594 12.971a8.692 8.692 0 00.638 1.574c6.039-1.744 10.887-4.508 11.866-8.761.68-2.977-.043-5.316-2-6.592a5.882 5.882 0 00-3.184-.851zm13.908-5.614a1.132 1.132 0 01-.51-.128 1.266 1.266 0 01-.6-1.616l.468-.978a2.248 2.248 0 00.17-1.446 1.882 1.882 0 00-1.144-1.276L36.193 2.64a2.248 2.248 0 00-1.446-.17 1.882 1.882 0 00-1.28 1.148l-.425.893a1.266 1.266 0 01-1.616.6 1.266 1.266 0 01-.6-1.616l.425-.893a4.193 4.193 0 012.9-2.471 4.675 4.675 0 013.062.3l6.254 2.932a4.193 4.193 0 012.467 2.892 4.632 4.632 0 01-.3 3.02l-.468.978a1.159 1.159 0 01-1.063.723z"/></svg>