
<svg xmlns="http://www.w3.org/2000/svg" viewBox="0 0 1788 400" preserveAspectRatio="xMinYMid meet" aria-labelledby="navbar-fanatical-logo"><g fill="none"><path fill="#FF9800" d="M2.8756 166.0056h284.671a2.9981 2.9981 0 0 0 2.7221-1.7424l25.8632-56.0452c.6946-1.504.0391-3.2867-1.464-3.9817a2.9968 2.9968 0 0 0-1.258-.2767l-288.9182.0356C58.4482 42.0187 124.261 0 199.882 0c110.3917 0 199.882 89.543 199.882 200s-89.4903 200-199.882 200C89.4902 400 0 310.457 0 200c0-11.588.985-22.946 2.8756-33.9944zM125.9256 328c0 2.2091 1.7898 4 3.9977 4h5.1722l62.8312-79.0111h49.4291a2.9981 2.9981 0 0 0 2.722-1.7422l25.835-55.976a3.0015 3.0015 0 0 0 .2761-1.2577c0-1.6569-1.3423-3-2.9982-3h-147.265V328z"/><path fill="#FFF" d="M500.748 124.732c0-1.216.418-2.242 1.254-3.078.836-.836 1.862-1.254 3.078-1.254h104.2002c1.6568 0 3 1.3431 3 3a3 3 0 0 1-.2767 1.2584l-9.6015 20.7794a4 4 0 0 1-3.6311 2.3222H530.388v42.864h46.4362c1.6568 0 3 1.3431 3 3a3 3 0 0 1-.277 1.259l-9.6068 20.7796a4 4 0 0 1-3.6307 2.3214H530.388v57.684c0 1.216-.418 2.242-1.254 3.078-.836.836-1.862 1.254-3.078 1.254H505.08c-1.216 0-2.242-.418-3.078-1.254-.836-.836-1.254-1.862-1.254-3.078V124.732zm212.34 100.776l-22.8-50.16h-.684l-22.344 50.16h45.828zM618.468 280c-1.672 0-2.926-.608-3.762-1.824-.836-1.216-.874-2.584-.114-4.104L685.5 120.628c.912-1.672 2.204-2.508 3.876-2.508h2.28c1.216 0 2.09.228 2.622.684.532.456.95 1.064 1.254 1.824l70.224 153.444c.76 1.52.722 2.888-.114 4.104-.836 1.216-2.09 1.824-3.762 1.824h-19.836c-1.672 0-3.002-.342-3.99-1.026-.988-.684-1.862-1.862-2.622-3.534l-11.172-24.624h-68.172l-11.172 24.624c-.456 1.216-1.216 2.28-2.28 3.192-1.064.912-2.508 1.368-4.332 1.368h-19.836zm180.036-157.776c0-1.216.418-2.204 1.254-2.964.836-.76 1.862-1.14 3.078-1.14h5.7l94.848 100.776h.228v-94.164c0-1.216.418-2.242 1.254-3.078.836-.836 1.862-1.254 3.078-1.254h20.976c1.216 0 2.242.418 3.078 1.254.836.836 1.254 1.862 1.254 3.078v153.444c0 1.216-.418 2.204-1.254 2.964-.836.76-1.862 1.14-3.078 1.14h-5.472l-95.304-104.652h-.228v98.04c0 1.216-.418 2.242-1.254 3.078-.836.836-1.862 1.254-3.078 1.254h-20.748c-1.216 0-2.242-.418-3.078-1.254-.836-.836-1.254-1.862-1.254-3.078V122.224zm265.992 103.284l-22.8-50.16h-.684l-22.344 50.16h45.828zM969.876 280c-1.672 0-2.926-.608-3.762-1.824-.836-1.216-.874-2.584-.114-4.104l70.908-153.444c.912-1.672 2.204-2.508 3.876-2.508h2.28c1.216 0 2.09.228 2.622.684.532.456.95 1.064 1.254 1.824l70.224 153.444c.76 1.52.722 2.888-.114 4.104-.836 1.216-2.09 1.824-3.762 1.824h-19.836c-1.672 0-3.002-.342-3.99-1.026-.988-.684-1.862-1.862-2.622-3.534l-11.172-24.624h-68.172l-11.172 24.624c-.456 1.216-1.216 2.28-2.28 3.192-1.064.912-2.508 1.368-4.332 1.368h-19.836zm201.468-132.24h-34.884c-1.216 0-2.242-.418-3.078-1.254-.836-.836-1.254-1.862-1.254-3.078v-18.696c0-1.216.418-2.242 1.254-3.078.836-.836 1.862-1.254 3.078-1.254h99.636c1.216 0 2.242.418 3.078 1.254.836.836 1.254 1.862 1.254 3.078v18.696c0 1.216-.418 2.242-1.254 3.078-.836.836-1.862 1.254-3.078 1.254h-34.884v127.908c0 1.216-.418 2.242-1.254 3.078-.836.836-1.862 1.254-3.078 1.254h-21.204c-1.216 0-2.242-.418-3.078-1.254-.836-.836-1.254-1.862-1.254-3.078V147.76zm104.796-23.028c0-1.216.418-2.242 1.254-3.078.836-.836 1.862-1.254 3.078-1.254h21.204c1.216 0 2.242.418 3.078 1.254.836.836 1.254 1.862 1.254 3.078v150.936c0 1.216-.418 2.242-1.254 3.078-.836.836-1.862 1.254-3.078 1.254h-21.204c-1.216 0-2.242-.418-3.078-1.254-.836-.836-1.254-1.862-1.254-3.078V124.732zm71.736 75.696c0-11.4 2.166-22.116 6.498-32.148 4.332-10.032 10.184-18.734 17.556-26.106 7.372-7.372 16.074-13.224 26.106-17.556 10.032-4.332 20.748-6.498 32.148-6.498 11.552 0 21.698 1.786 30.438 5.358 8.74 3.572 16.986 8.854 24.738 15.846 2.28 2.128 2.356 4.256.228 6.384l-13.908 14.364c-1.824 1.976-3.724 1.976-5.7 0-4.864-4.256-10.336-7.562-16.416-9.918-6.08-2.356-12.312-3.534-18.696-3.534-7.296 0-14.06 1.406-20.292 4.218-6.232 2.812-11.59 6.65-16.074 11.514-4.484 4.864-8.018 10.526-10.602 16.986-2.584 6.46-3.876 13.262-3.876 20.406 0 7.144 1.292 13.908 3.876 20.292 2.584 6.384 6.156 11.97 10.716 16.758 4.56 4.788 9.956 8.588 16.188 11.4 6.232 2.812 12.996 4.218 20.292 4.218 6.84 0 13.148-1.178 18.924-3.534s11.096-5.51 15.96-9.462c.912-.76 1.9-1.14 2.964-1.14s1.976.38 2.736 1.14l14.136 14.592c.912.76 1.292 1.786 1.14 3.078-.152 1.292-.608 2.318-1.368 3.078-7.752 7.6-16.378 13.186-25.878 16.758-9.5 3.572-19.342 5.358-29.526 5.358-11.4 0-22.116-2.128-32.148-6.384-10.032-4.256-18.734-10.07-26.106-17.442s-13.224-16.036-17.556-25.992c-4.332-9.956-6.498-20.634-6.498-32.034zm257.328 25.08l-22.8-50.16h-.684l-22.344 50.16h45.828zM1510.584 280c-1.672 0-2.926-.608-3.762-1.824-.836-1.216-.874-2.584-.114-4.104l70.908-153.444c.912-1.672 2.204-2.508 3.876-2.508h2.28c1.216 0 2.09.228 2.622.684.532.456.95 1.064 1.254 1.824l70.224 153.444c.76 1.52.722 2.888-.114 4.104-.836 1.216-2.09 1.824-3.762 1.824h-19.836c-1.672 0-3.002-.342-3.99-1.026-.988-.684-1.862-1.862-2.622-3.534l-11.172-24.624h-68.172l-11.172 24.624c-.456 1.216-1.216 2.28-2.28 3.192-1.064.912-2.508 1.368-4.332 1.368h-19.836zm180.036-155.268c0-1.216.418-2.242 1.254-3.078.836-.836 1.862-1.254 3.078-1.254h20.976c1.216 0 2.242.418 3.078 1.254.836.836 1.254 1.862 1.254 3.078V252.64h64.4893c1.6568 0 3 1.3431 3 3a3 3 0 0 1-.2767 1.2583l-9.6013 20.7795a4 4 0 0 1-3.631 2.3222h-79.2883c-1.216 0-2.242-.418-3.078-1.254-.836-.836-1.254-1.862-1.254-3.078V124.732z"/></g></svg>