<?xml version="1.0" encoding="utf-8"?>
<!-- Generator: Adobe Illustrator 18.0.0, SVG Export Plug-In . SVG Version: 6.00 Build 0)  -->
<!DOCTYPE svg PUBLIC "-//W3C//DTD SVG 1.0//EN" "http://www.w3.org/TR/2001/REC-SVG-20010904/DTD/svg10.dtd">
<svg version="1.0" id="Layer_1" xmlns="http://www.w3.org/2000/svg" xmlns:xlink="http://www.w3.org/1999/xlink" x="0px" y="0px"
	 viewBox="0 0 595.3 841.9" enable-background="new 0 0 595.3 841.9" xml:space="preserve">
<g>
	<path fill="#D32627" d="M200.1,407.9c-0.2-2.4-1-5-3.5-5.8c-4.7-1.3-9.5,8.6-9.5,12.2c0,9.6,12.9,13.1,20.7,12.1
		c8.9-1.1,15-10.5,16.3-18.8c0.9-5.5-0.4-10.9-2.3-16.2c0.8,0,1.5,0,2.3-0.1c1.1-0.1,2.3-0.2,3.4-0.5c1.1-0.3,2.7-1.2,2.9-2.4
		c0.2-1.3-1.1-2.3-2.2-2.7c-1.1-0.4-2.9-0.1-4.1-0.1c-1.5,0-3.1,0-4.6,0c-2.7-6-5.7-11.9-7.2-17.8c-0.9-3.8-0.9-6.8,3.7-7.3
		c3.8-0.3,5.8,1.8,5.2,5.5c-0.3,1.8-1.3,3.4,0.1,5c1.6,1.8,4.8,1.8,7.1,0.8c0.9-0.4,1.6-0.9,2.1-1.4c2.1-2.3,3-5.7,2.8-8.8
		c-0.5-6.2-5.2-12.2-11-14.4c-3.4-1.3-7.2-1.2-10.5,0.5c-5.4,2.8-8.9,12-10,17.8c-1.2,6.5,0.1,14,1.9,20.4c-0.7,0-1.4,0.1-2.1,0.1
		c-3.4,0.3-8.1-0.7-11.3,1c-1.2,0.6-2.3,2.6-1.1,3.8c0.8,0.8,2.3,0.5,3.4,0.6c4.2,0.4,8.5,0.5,12.8,0.5c0.9,3.8,1.7,7.6,2.6,11.3
		c0.5,2.1,1.2,4.3,1.6,6.5c0.9,4.3,0.3,9.8-5.6,8.9C196.7,417.5,200.5,412.4,200.1,407.9z"/>
	<path fill="#D32627" d="M309.4,425.9c4.4-0.6,6.3-4.5,7.4-8.7c2.3-4.9,2.8-11,4.6-16.2c1-2.8,1.9-6,3.9-8.3c1.8-2.1,4-2.5,6.5-1.3
		c3.9,1.9,7.9,4.7,12,1c2.3-2,4.4-6.4,3.2-9.6c-1-2.6-4.7-4-7.3-4.4c-6.8-0.9-13.6,4.4-17.4,9.6c-1.2,1.6-2.2,3.3-3.1,5.1
		c-0.4-4.5-1.6-9.2-4.9-12.1c-2.7-2.3-8-3.3-10.6-1.2c-0.1,0-0.2,0.1-0.2,0.1c-2,1.3-3.1,3.7-4.5,5.5c-1.2,1.5-2.6,2.7-4.1,3.9
		c-1.4-2.5-3.4-4.7-6-6c-4.4-2.2-11.3-3.6-15,0.7c0,0.1-0.1,0.1-0.1,0.2c-1.2,0.6-2.4,1.3-3.5,2.1c-3.1,2.3-5,5.3-6.2,8.9
		c-0.8,2.6-1.3,5.6-1.2,8.7c-0.1,0.5-0.2,1.1-0.2,1.5c-0.5,2.9-1.4,5.6-2.6,8.3c-0.5,1.2-1.1,2.2-2.1,3.1c-1.3,1.3-3.1,2-4.8,0.9
		c-2.8-1.9-4.7-4.8-5.9-8.1c1.1-1.2,2.2-2.4,3.1-3.7c2.6-3.8,5.1-7.6,7.8-11.3c4.6-6.4,10.5-18.5,7.2-26.3c-1.6-3.9-3.6-6-7.9-5.2
		c-5.2,1-8.9,4.1-12.4,8c-9.7,10.7-14,24.7-14.8,38.9c-0.2,3.4-0.3,7,0.4,10.3c-2,1.8-4.1,3.6-6.1,5.4c-1.2,1.1-4.9,2.8-4.8,4.4
		c0.1,2.3,3.5,1.4,4.9,1c3-0.9,5.7-3.2,8.1-5.4c0.7,1.1,1.5,2.1,2.5,3c3,2.7,5.6,3.5,9.8,3.3c3.2-0.1,6.1-1.6,8.9-3.1
		c4.8-2.5,8.2-7.2,10.1-12.1c0.4-1,0.7-2.1,1-3.2c0.6,1.1,1.4,2.2,2.3,3c5.6,5.3,15.8,5,21.9,1.3c7.1-4.4,9.9-13.2,8.2-21.1
		c-0.2-1.1-0.5-2.1-0.9-3.2c2.5-1.2,4.8-2.7,6.5-4.3c0.7,2.7,1.7,5.5,2.1,8.2c0.9,5.6,1.6,12.7,1,18.3
		C305.6,419.6,302.4,426.8,309.4,425.9z M245.3,392.7c0.4-4.1,1.1-8.2,2.3-12.1c1-3,4.9-11.1,9-6.1c1,1.2,1.1,3.5,1,5
		c-0.6,5.6-3.7,11.5-6.2,16.5c-1.5,3.1-3.4,6.1-5.6,9c-0.3-1.8-0.5-3.6-0.6-5.3C245.1,397.2,245.1,394.8,245.3,392.7z M284.9,387.9
		c1.1,1.7,1.1,3.9,1.1,5.9c-2,0.3-4.1,0.2-5.6-0.6c-0.8-0.4-1.1-1.3-1.3-2.1C278.6,388.1,282.7,384.7,284.9,387.9z M284.1,404.4
		c-0.6,1.4-1.5,2.8-2.6,3.9c-2.1,2-6,1.8-7.8-0.4c-2.7-3.3-0.4-8.4,1.2-12c1,0.5,2.2,0.9,3.5,1.1c2.2,0.3,4.8,0.2,7.5-0.3
		C285.8,399.3,285.2,401.9,284.1,404.4z"/>
	<path fill="#D32627" d="M339.3,401.4c-5.6,0.4-11.4,3.6-14.3,8.3c-2.8,4.5-3.7,11,0.6,15c7.7,7.1,17.6,3.9,23.7-2.8
		c0.9,2.3,2.1,4.3,3.5,5.5c2.8,2.6,7,3.3,10.7,2.9c6.7-0.7,13.3-8.7,13.1-15.5c0-1.5-2.5-8.8-5-5.4c-1,1.4,0.5,5.9-0.2,7.7
		c-2.7,8-9.4-5.2-10.4-7.6c-0.4-0.9-0.9-2.6-1.6-4.5c-1.7-4.9-4.4-11.1-8.1-8.2c-1.6,1.2-2.7,3.2-3.4,5.5
		C345.1,401.3,340.7,401.3,339.3,401.4z M341.8,415.9c-4-1.2-5.3-4.9-2.2-8.3c1.6-1.8,4-2.1,6.2-1.7c0.4,0.1,0.8,0.2,1.3,0.3
		c-0.3,2.9-0.2,6,0.3,9C346.1,416.3,344.5,416.8,341.8,415.9z"/>
	<path fill="#D32627" d="M258.5,462.9c-0.6,1.1,0.3,4.8-2,3.3c-1.5-0.9-2.6-4.3-3.5-6.2c0.5-0.7,0.9-1.4,1.3-2.1
		c1.8-2.9,3.3-6,4.7-9c1.5-3.2,4.3-7.3,2.4-11c-0.4-0.7-0.9-1.4-1.7-2c-2.8-2.3-7.9-2.3-10.8,0c-2.2,1.8-2.1,4.4-0.3,6.5
		c1.3,1.5,2.6,1.4,3.3,3.2c0.8,1.8-0.1,3.7-1,5.4c-0.4,0.8-0.9,1.7-1.4,2.6c-0.1-0.3-0.3-0.5-0.4-0.8c-2.7-4.5-6.3-8-11.4-9.6
		c-4-1.2-10.4-1.9-13.5,1.7c-1.6,1.9-1.8,7.6-0.9,9.8c0.9,2.2,2.8,3.6,5.1,4c4.7,0.9,9,3.3,13.1,6.1c-4,4.2-8.7,7.2-13.7,6.7
		c-4.3-0.4-6.3,3.8-4.8,7.5c3,7.4,13.4-0.1,16.7-3.2c2.4-2.3,4.7-4.7,6.8-7.3c1.1,0.8,2.1,1.6,3.1,2.3c1.1,0.8,2.1,1.6,3.2,2.3
		c1.8,1.3,4.4,3.5,6.7,2.2c2.2-1.2,3.1-5.4,3.2-7.8c0.1-1.7,0.1-3.2-1.1-4.5C261,462.1,259.3,461.3,258.5,462.9z"/>
	<path fill="#D32627" d="M299.1,436.7c-4.2-3.5-9.6-3.9-14.5-1.4c-2.3,1.2-4.4,3.2-6,5.6c-0.9-2.8-2.3-5.4-4.6-7.8
		c-2.5-2.6-8.6-5.5-9,0c-0.2,2.1,0.7,4.2,1.3,6.2c0.7,2.1,1.1,4.4,1.5,6.6c1.1,7.7,1,15.6,1,23.4c-0.1,7.3-1.9,14.2-3.1,21.2
		c-0.2,1.3-1.1,4.3,0.7,5.4c2.4,1.4,4.6-0.1,6.5-2.6c4.8-6.3,7.1-13.7,7.9-21.3c0.1,0,0.1,0,0.2,0c12.2,0.6,23.4-6.9,23.5-19.9
		C304.5,446.3,303.7,440.6,299.1,436.7z M290.2,459.1c-0.2,0.5-0.4,1-0.6,1.5c-1.7,3.4-4.9,6.1-8.5,7.4c0.2-3.3,0.1-6.6-0.1-9.9
		c0.2-2.8,0.7-5.6,1.8-8c1.7-3.6,5.7-3.9,7.5-0.2C291.7,452.6,291.1,456.3,290.2,459.1z"/>
	<path fill="#D32627" d="M330.6,445.4c2-0.7,5.1,1.8,7.9,0.9c6.3-2,7.6-9.3,0.6-10.7c-5.6-1.2-10.3,3.1-13,7.6c-1.4,2.3-2.7,4.6-4,7
		c0-0.2,0-0.3,0.1-0.5c1-7.3,0.7-18.2-9.2-18.5c-9.1-0.3-4.3,8.8-3.3,13.8c1.5,7.4,0.9,15.2-0.3,22.7c-0.3,2-0.9,4-0.8,6.1
		c0.1,1.2-0.4,1.7,0.9,2.4c1.4,0.8,2.6,0.8,3.7,0.3c4.1,0.8,11.2-21.8,13.1-25.2C327.1,450,329.3,445.9,330.6,445.4z"/>
	<path fill="#D32627" d="M360.5,460.9c-2.2-0.2-4.4,3.2-5.9,4.4c-3.4,2.8-7.4,3.6-11.3,1.2c1.9-1.1,3.8-2.4,5.5-3.8
		c2.5-2.1,6.5-6.2,5.1-9.9c-1-2.8-5.2-3.9-7.8-4.1c-6.4-0.4-14,5.5-16,11.5c-3.4,10.2,4.7,17.7,15,16.4c4.4-0.5,8.9-2.9,12.1-5.8
		c1.7-1.5,3.1-3.6,4.1-5.6C362.1,463.7,362.7,461.1,360.5,460.9z M340.8,459.5c0.5-1.6,1.3-4,2.9-5.1c2.3-1.6,4.6-0.3,4.4,2.4
		c-0.3,3.3-3.2,6-5.8,7.7c-0.2,0.1-0.4,0.2-0.6,0.4C340.6,463.3,340.3,461.2,340.8,459.5z"/>
	<path fill="#D32627" d="M222.7,460.7c-0.7-1.5-3.4-1.2-4.7-0.8c-3.5,1-6.6,3.1-10.1,3.9c-1.9,0.4-4.2,0.2-6-0.6
		c-1.5-0.7-3-1.7-4.2-3c2.8-0.6,5.6-1.4,8.3-2.4c5.9-2.2,11-7.3,12-13.7c1.1-7-4-11.4-10.7-11.7c-14.6-0.7-27.1,13.4-24,27.8
		c1.6,7.1,6.5,11.1,12.5,12.6c6.2,1.6,13.5,0.5,19.2-2.4c1.9-1,3.6-2.2,5.1-3.7C221.3,465.4,223.6,462.4,222.7,460.7z M198.6,448.2
		c1.8-1.8,5.3-4.4,8-2.7c3,1.9,0.6,5.7-1.1,7.4c-2.3,2.2-5.4,3.5-8.4,4.3c-0.3,0.1-0.6,0.1-1,0.2c-0.2-0.5-0.3-1-0.3-1.5
		C195.7,453.1,196.7,450.2,198.6,448.2z"/>
	<path fill="#D32627" d="M379.8,451.1c-2.2-1.6-4-2.2-6.6-3c-1.7-0.5-3.6-1.2-4.2-3.2c-1.6-5.5,7.5,0.8,8.1-2.4
		c1.5-8.4-14.7-4-17,0.8c-2.2,4.6-0.4,8.1,3.1,11c3.4,2.9,7.7,4.2,9,8.9c0.6,2.1,0.6,5.7-0.9,7.6c-2.6,3.4-3.8,0.7-6-0.8
		c-4.3-3-7.2,2.2-5.5,6.2c1.9,4.3,9.8,3.8,13.5,2.2c4.9-2.2,9.1-7,11.1-11.9C387.1,460,385.5,455.4,379.8,451.1z"/>
	<path fill="#D32627" d="M408.2,444.2c-3.3-2.3-8.3-3.5-12-4.9c-1.6-0.6-3-0.5-3.9-2.1c-1-1.7-0.2-4.2,1.5-5.2c3-1.7,9.6,6.1,9-1.7
		c-0.6-7.2-7.3-6.3-12.1-3.7c-4.5,2.4-8.6,6.2-8.5,11.6c0.1,5.3,6,9.6,10,12.9c0.3,0.3,0.6,0.5,0.9,0.8c2.8,2.4,6.5,8.6,5.6,12.4
		c-1.8,7.5-7.4-1-10.5,0.2c-2.2,0.8-2.2,4.2-1,5.7c3,3.9,12.5,3.7,16.5,1.9c5.4-2.3,10.2-8.2,11.2-14
		C415.9,451.9,413.1,447.7,408.2,444.2z"/>
</g>
</svg>
