<svg xmlns="http://www.w3.org/2000/svg" xmlns:xlink="http://www.w3.org/1999/xlink" preserveAspectRatio="xMidYMid" width="105" height="28" viewBox="0 0 105 28">
  <defs>
    <style>

      .cls-3 {
        fill: #ffffff;
      }

      .cls-4 {
        fill: #ff8000;
      }
    </style>
  </defs>
  <g id="logosvg">
    <path d="M76.113,13.458 C74.712,13.458 73.984,12.704 73.628,12.266 C73.628,12.266 73.628,13.179 73.628,13.179 C73.628,13.179 71.722,13.179 71.722,13.179 C71.722,13.179 71.722,0.414 71.722,0.414 C71.722,0.414 73.628,0.414 73.628,0.414 C73.628,0.414 73.628,5.431 73.628,5.431 C74.413,4.298 75.497,4.159 76.113,4.159 C78.711,4.159 80.131,6.425 80.131,8.788 C80.131,11.708 78.188,13.458 76.113,13.458 ZM75.850,5.986 C74.656,5.986 73.516,6.901 73.516,8.848 C73.516,10.398 74.357,11.631 75.850,11.631 C77.309,11.631 78.151,10.339 78.151,8.828 C78.151,7.239 77.234,5.986 75.850,5.986 ZM65.836,13.458 C65.332,13.458 64.097,13.320 63.221,12.366 C62.396,11.472 62.342,10.516 62.342,9.485 C62.342,9.485 62.342,4.398 62.342,4.398 C62.342,4.398 64.247,4.398 64.247,4.398 C64.247,4.398 64.247,9.444 64.247,9.444 C64.247,9.981 64.247,10.557 64.603,11.033 C64.864,11.392 65.276,11.631 65.873,11.631 C66.472,11.631 66.882,11.392 67.145,11.033 C67.499,10.557 67.499,9.981 67.499,9.444 C67.499,9.444 67.499,4.398 67.499,4.398 C67.499,4.398 69.404,4.398 69.404,4.398 C69.404,4.398 69.404,9.485 69.404,9.485 C69.404,10.516 69.349,11.472 68.528,12.366 C67.668,13.320 66.415,13.458 65.836,13.458 ZM58.119,0.414 C58.119,0.414 60.024,0.414 60.024,0.414 C60.024,0.414 60.024,13.179 60.024,13.179 C60.024,13.179 58.119,13.179 58.119,13.179 C58.119,13.179 58.119,0.414 58.119,0.414 ZM52.827,13.438 C51.785,13.438 50.083,13.216 48.521,11.647 C47.340,10.447 46.575,8.878 46.575,6.772 C46.575,5.093 47.062,3.191 48.521,1.714 C49.789,0.422 51.247,-0.002 52.914,-0.002 C54.477,-0.002 55.415,0.422 56.161,0.957 C56.161,0.957 56.161,3.283 56.161,3.283 C54.876,1.955 53.539,1.843 52.879,1.843 C50.241,1.843 48.521,3.930 48.521,6.772 C48.521,9.525 50.309,11.592 52.879,11.592 C53.451,11.592 54.789,11.482 56.161,10.097 C56.161,10.097 56.161,12.461 56.161,12.461 C55.779,12.718 54.650,13.438 52.827,13.438 ZM42.382,13.179 C42.382,13.179 40.702,10.300 40.702,10.300 C40.702,10.300 38.935,13.179 38.935,13.179 C38.935,13.179 35.301,13.179 35.301,13.179 C35.301,13.179 38.935,8.475 38.935,8.475 C38.935,8.475 35.901,4.374 35.901,4.374 C35.901,4.374 39.570,4.374 39.570,4.374 C39.570,4.374 40.890,6.724 40.890,6.724 C40.890,6.724 42.245,4.374 42.245,4.374 C42.245,4.374 45.743,4.374 45.743,4.374 C45.743,4.374 42.622,8.512 42.622,8.512 C42.622,8.512 45.863,13.179 45.863,13.179 C45.863,13.179 42.382,13.179 42.382,13.179 ZM28.596,9.479 C28.561,10.591 29.178,11.594 30.379,11.594 C31.202,11.594 31.803,11.211 31.957,10.500 C31.957,10.500 34.837,10.500 34.837,10.500 C33.878,13.509 31.098,13.509 30.379,13.509 C27.806,13.509 25.783,11.848 25.783,8.767 C25.783,5.977 27.516,4.045 30.345,4.045 C34.289,4.045 34.973,7.510 34.906,9.479 C34.906,9.479 28.596,9.479 28.596,9.479 ZM30.345,5.959 C29.332,5.959 28.716,6.798 28.664,7.745 C28.664,7.745 32.025,7.745 32.025,7.745 C31.974,6.835 31.426,5.959 30.345,5.959 ZM24.378,6.908 C22.183,6.908 22.149,9.132 22.149,9.425 C22.149,9.425 22.149,13.179 22.149,13.179 C22.149,13.179 19.148,13.179 19.148,13.179 C19.148,13.179 19.148,4.374 19.148,4.374 C19.148,4.374 22.029,4.374 22.029,4.374 C22.029,4.374 22.029,5.522 22.029,5.522 C22.115,5.396 22.201,5.285 22.285,5.176 C22.989,4.355 23.881,4.174 24.378,4.174 C24.601,4.174 25.046,4.228 25.150,4.244 C25.150,4.244 25.150,7.054 25.150,7.054 C24.874,6.926 24.669,6.908 24.378,6.908 ZM12.717,13.509 C9.289,13.509 7.762,11.285 7.762,8.767 C7.762,6.288 9.289,4.045 12.717,4.045 C16.147,4.045 17.673,6.288 17.673,8.767 C17.673,11.285 16.147,13.509 12.717,13.509 ZM12.717,6.342 C11.517,6.342 10.865,7.327 10.865,8.767 C10.865,10.226 11.517,11.211 12.717,11.211 C13.917,11.211 14.570,10.226 14.570,8.767 C14.570,7.327 13.917,6.342 12.717,6.342 ZM3.361,5.396 C3.361,5.396 6.842,5.396 6.842,5.396 C6.842,5.396 6.842,8.330 6.842,8.330 C6.842,8.330 3.361,8.330 3.361,8.330 C3.361,8.330 3.361,13.179 3.361,13.179 C3.361,13.179 0.000,13.179 0.000,13.179 C0.000,13.179 0.000,0.417 0.000,0.417 C0.000,0.417 7.202,0.417 7.202,0.417 C7.202,0.417 7.202,3.481 7.202,3.481 C7.202,3.481 3.361,3.481 3.361,3.481 C3.361,3.481 3.361,5.396 3.361,5.396 Z" id="path-1" class="cls-3" fill-rule="evenodd"/>
    <path d="M104.999,0.000 C104.999,0.000 95.645,10.039 95.645,10.039 C95.645,10.039 85.204,10.039 85.204,10.039 C85.204,10.039 78.904,16.798 78.904,16.798 C78.904,16.798 78.905,20.999 78.905,20.999 C78.905,20.999 86.343,13.020 86.343,13.020 C86.343,13.020 96.780,13.019 96.780,13.019 C96.780,13.019 105.000,4.202 105.000,4.202 C105.000,4.202 105.000,0.002 105.000,0.002 C105.000,0.002 104.999,0.000 104.999,0.000 C104.999,0.000 104.999,0.000 104.999,0.000 ZM87.123,14.983 C87.123,14.983 87.123,14.983 87.123,14.983 C87.123,14.983 78.904,23.786 78.904,23.786 C78.904,23.786 78.904,28.000 78.904,28.000 C78.904,28.000 88.258,17.962 88.258,17.962 C88.258,17.962 98.696,17.962 98.696,17.962 C98.696,17.962 105.000,11.198 105.000,11.198 C105.000,11.198 105.000,7.001 105.000,7.001 C105.000,7.001 97.562,14.983 97.562,14.983 C97.562,14.983 87.123,14.983 87.123,14.983 C87.123,14.983 87.123,14.983 87.123,14.983 Z" id="path-2" class="cls-4" fill-rule="evenodd"/>
  </g>
</svg>
