<svg width="156" height="28" xmlns="http://www.w3.org/2000/svg"><path d="M3.902 3.804C6.504 1.268 10.028 0 14.472 0c3.583 0 6.524.804 8.825 2.412 2.301 1.608 3.452 3.666 3.452 6.176h-4.08c0-2.065-.784-3.764-2.352-5.098-1.57-1.333-3.556-2-5.962-2-3.138 0-5.622 1.13-7.452 3.392s-2.746 5.262-2.746 9c0 3.844.988 6.909 2.962 9.197 1.974 2.287 4.66 3.43 8.06 3.43 1.62 0 3.105-.248 4.451-.744 1.347-.497 2.412-1.177 3.197-2.04V15.57h-8.982v-1.844h12.982v10c-1.02 1.334-2.543 2.38-4.569 3.138S17.924 28 15.335 28c-4.758 0-8.504-1.281-11.236-3.843C1.366 21.595 0 18.17 0 13.882 0 9.7 1.3 6.34 3.902 3.804zm32.894 23.903V.293h20.67v1.84h-16.67v10.653H55.27v1.84H40.796v11.24h16.67v1.84h-20.67zM77.74 14.953c2.144 0 3.87-.585 5.178-1.755 1.308-1.17 1.962-2.717 1.962-4.642 0-1.924-.648-3.464-1.942-4.621-1.295-1.157-3.014-1.736-5.16-1.736h-6.825v12.754h6.787zM66.995.293h11.107c3.323 0 5.992.75 8.007 2.252 2.014 1.501 3.022 3.492 3.022 5.972 0 2.48-1.008 4.478-3.022 5.992-2.015 1.514-4.67 2.272-7.968 2.272h-7.143v10.926h-4.003V.293zm34.802 0v17.048c0 2.482.84 4.487 2.52 6.015 1.68 1.529 3.898 2.293 6.655 2.293 2.73 0 4.928-.764 6.595-2.293 1.668-1.528 2.5-3.533 2.5-6.015V.293h2.048v16.97c0 3.239-1.115 5.838-3.346 7.798-2.233 1.96-5.172 2.939-8.82 2.939-3.677 0-6.624-.98-8.842-2.94-2.217-1.959-3.327-4.558-3.327-7.798V.293h4.017zM143.56 14.22c2.17 0 3.904-.532 5.198-1.595 1.295-1.063 1.943-2.527 1.943-4.39 0-1.864-.648-3.36-1.943-4.49-1.294-1.128-3.014-1.693-5.158-1.693h-6.826V14.22h6.786zM132.67.293h11.152c3.337 0 6.017.731 8.04 2.193 2.024 1.462 3.035 3.394 3.035 5.796 0 1.828-.604 3.375-1.814 4.641-1.208 1.266-2.877 2.16-5.004 2.683l7.606 12.1h-4.454l-7.37-11.63h-7.172v11.63h-4.02V.294z" fill="#000" fill-rule="evenodd"/></svg>