<svg height="31" viewBox="0 0 150 31" width="150" xmlns="http://www.w3.org/2000/svg"><g fill="none" fill-rule="evenodd"><path d="M119.467 13.138v5.599h-2.343v-5.664c0-1.43-1.046-2.594-2.332-2.594-1.286 0-2.332 1.164-2.332 2.594v5.664h-2.343V4.68h2.343v4.182a4.457 4.457 0 0 1 2.332-.66c2.578 0 4.675 2.214 4.675 4.936zm-10.544 1.379c0 .978-.424 1.977-1.162 2.74-.652.672-1.864 1.473-3.937 1.473h-.492c-1.984 0-3.83-1.1-4.951-2.948l2.048-1.142c.746 1.232 2.07 1.972 3.467 1.933.668 0 1.29-.163 1.75-.46.57-.368.872-.913.872-1.575 0-1.106-1.463-1.507-3.376-1.915-1.096-.24-2.227-.544-3.072-1.138-.907-.637-1.348-1.535-1.348-2.744 0-1.958 1.839-3.983 4.918-3.983h.01c2.035 0 3.784.862 4.935 2.43l-1.82 1.103c-.685-.936-1.874-1.487-3.119-1.439-.63 0-1.217.149-1.652.416-.547.338-.836.84-.836 1.452 0 1.072 1.365 1.47 3.294 1.914 1.109.252 2.253.567 3.108 1.164.917.641 1.363 1.53 1.363 2.719zm12.053 4.22h2.343V8.194h-2.343zm8.753-8.193c.842 0 1.594.44 2.078 1.123l-4.719 1.718c.042-1.574 1.21-2.841 2.64-2.841zm0 5.855c-.804 0-1.524-.4-2.009-1.028l6.956-2.532c-.297-2.609-2.401-4.638-4.947-4.638-2.75 0-4.985 2.365-4.985 5.27 0 2.907 2.236 5.271 4.985 5.271 2.39 0 4.334-1.395 5.035-3.539h-2.59c-.523.75-1.396 1.196-2.445 1.196zm15.223 0c-1.457 0-2.642-1.313-2.642-2.927 0-1.615 1.185-2.928 2.642-2.928 1.457 0 2.643 1.313 2.643 2.928 0 1.614-1.186 2.927-2.643 2.927zm2.643-11.719v4.456c-.806-.6-1.673-.935-2.643-.935-2.748 0-4.985 2.365-4.985 5.27 0 2.907 2.237 5.271 4.985 5.271 2.75 0 4.985-2.364 4.985-5.27V4.68zm-11.392 14.057h2.343V4.68h-2.343zm-53.336-2.338c-1.457 0-2.642-1.313-2.642-2.927 0-1.615 1.185-2.928 2.642-2.928 1.457 0 2.643 1.313 2.643 2.928 0 1.614-1.186 2.927-2.643 2.927zm0-8.198c-2.748 0-4.985 2.365-4.985 5.27 0 2.907 2.237 5.271 4.985 5.271s4.985-2.364 4.985-5.27c0-2.906-2.236-5.27-4.985-5.27zm40.55-2.252a1.268 1.268 0 1 1-2.538 0 1.268 1.268 0 0 1 2.537 0zM91.361 8.203h2.344v2.343h-2.344v4.333c0 .84.682 1.587 1.521 1.587l.823.02v2.258h-.823a3.869 3.869 0 0 1-3.864-3.865V4.69h2.343zm-38.067 0h2.345v2.343h-2.345v4.333c0 .84.683 1.587 1.522 1.587l.823.02v2.258h-.823a3.869 3.869 0 0 1-3.865-3.865V4.69h2.343zm-8.487 8.198c-1.457 0-2.643-1.313-2.643-2.928 0-1.614 1.186-2.927 2.643-2.927 1.456 0 2.642 1.313 2.642 2.927 0 1.615-1.186 2.928-2.642 2.928zm0-8.198c-2.75 0-4.985 2.364-4.985 5.27 0 2.906 2.236 5.27 4.985 5.27 2.748 0 4.984-2.364 4.984-5.27 0-2.906-2.236-5.27-4.984-5.27zM36.306 4.68h2.343v14.057h-2.343V12.88H30.45v5.857h-2.342V4.68h2.342v5.857h5.857zm29.287 10.794c0 .785-.354 1.582-.973 2.188-.538.528-1.533 1.154-3.22 1.154h-.033a4.888 4.888 0 0 1-.348.013c-1.722 0-3.353-.914-4.225-2.394l-.045-.075 2.119-1.123.041.072a2.835 2.835 0 0 0 2.547 1.432c.887 0 1.78-.387 1.78-1.251 0-.626-1.093-.9-2.414-1.168-1.75-.363-3.617-.932-3.617-3.093 0-1.56 1.515-3.172 4.05-3.172a4.777 4.777 0 0 1 4.197 1.996l.054.076-1.975 1.136-.045-.066a2.558 2.558 0 0 0-2.22-1.113c-.838 0-1.68.349-1.68 1.127 0 .552.792.826 2.353 1.168 1.768.381 3.654.966 3.654 3.093zm6.157.927c-1.457 0-2.642-1.313-2.642-2.928 0-1.614 1.185-2.927 2.642-2.927 1.457 0 2.642 1.313 2.642 2.927 0 1.615-1.185 2.928-2.642 2.928zm0-8.198c-2.749 0-4.985 2.364-4.985 5.27v8.792h2.343v-4.456c.805.6 1.672.935 2.642.935 2.749 0 4.985-2.365 4.985-5.27 0-2.907-2.236-5.27-4.985-5.27z" fill="#000"/><g fill-rule="nonzero"><path d="M.39 0A.39.39 0 0 0 0 .39v9.868C0 17.74 4.346 22.607 11.228 24.58c.313.09.645.09.958 0 6.882-1.972 11.228-6.84 11.228-14.32V.39a.39.39 0 0 0-.39-.391z" fill="#2ea6f8"/><path d="M14.129 4.37A7.287 7.287 0 0 1 16.7 7.735c.392 1.06.522 2.17.386 3.303a7.02 7.02 0 0 1-2.53 4.61.168.168 0 0 0-.034.222c.046.072.139.1.217.064a6.412 6.412 0 0 0 2.624-2.226c1.994-2.942 1.193-6.963-1.787-8.963a6.612 6.612 0 0 0-1.287-.672.17.17 0 0 0-.212.076.17.17 0 0 0 .05.22" fill="#5ae5ca"/><path d="M18.942 12.219a7.145 7.145 0 0 1-.903 1.748 6.958 6.958 0 0 1-1.507 1.557 6.632 6.632 0 0 1-2.924 1.248 6.574 6.574 0 0 1-4.883-1.122.158.158 0 0 0-.212.027.17.17 0 0 0-.002.22 6.082 6.082 0 0 0 2.725 1.85c3.215 1.072 6.687-.756 7.74-4.075.142-.45.236-.915.279-1.382a.165.165 0 0 0-.126-.178.162.162 0 0 0-.187.107" fill="#0c69da"/><path d="M13.273 18.796a6.947 6.947 0 0 1-3.85-1.28 6.645 6.645 0 0 1-2.067-2.417 6.755 6.755 0 0 1-.434-5.04.16.16 0 0 0-.09-.195.167.167 0 0 0-.208.067 6.24 6.24 0 0 0-.911 3.195c-.028 3.422 2.754 6.184 6.202 6.156a6.367 6.367 0 0 0 1.387-.164.167.167 0 0 0 .129-.176.161.161 0 0 0-.158-.146" fill="#094ba9"/><path d="M5.35 15.434a7.14 7.14 0 0 1 .03-4.097 6.747 6.747 0 0 1 1.646-2.741 6.634 6.634 0 0 1 4.615-1.993.16.16 0 0 0 .156-.148.168.168 0 0 0-.127-.178 6.063 6.063 0 0 0-3.288.123c-3.231 1.044-4.984 4.58-3.905 7.882.146.447.34.878.578 1.28.042.072.13.102.205.07a.164.164 0 0 0 .09-.198" fill="#fbcc62"/><path d="M6.121 6.778a7.025 7.025 0 0 1 1.746-.883 6.833 6.833 0 0 1 2.122-.369 6.648 6.648 0 0 1 6.37 4.532.158.158 0 0 0 .187.104.17.17 0 0 0 .13-.177 6.193 6.193 0 0 0-1.12-3.12C13.585 4.088 9.72 3.51 6.94 5.58c-.376.28-.723.602-1.03.956a.167.167 0 0 0-.002.218.16.16 0 0 0 .213.025" fill="#f65260"/></g><path d="M142.508 23.47c1.14 0 2.079.94 2.158 2.125l.005.163v2.033c0 1.262-.97 2.288-2.163 2.288-.768 0-1.444-.425-1.828-1.065l-.078-.14.874-.529c.186.424.578.717 1.032.717.593 0 1.082-.501 1.14-1.141l.007-.13v-.188a1.74 1.74 0 0 1-1.152.442c-1.191-.002-2.159-1.027-2.159-2.287 0-1.261.97-2.288 2.164-2.288zm-41.891 0c1.193 0 2.163 1.027 2.163 2.288s-.97 2.287-2.163 2.287c-.362 0-.703-.094-1.003-.26l-.147-.09v2.382h-1.016v-4.32c.002-1.26.973-2.287 2.166-2.287zm5.256 0c1.142 0 2.08.94 2.159 2.125l.005.163v2.285h-1.017v-.44c-.306.273-.709.44-1.151.442-1.191-.002-2.16-1.027-2.16-2.287 0-1.261.971-2.288 2.164-2.288zm7.093-1.02v1.022h.762v1.017h-.762v2.04a.5.5 0 0 0 .41.492l.09.008h.262v1.017h-.262c-.79 0-1.441-.607-1.51-1.38l-.007-.137V22.45zm34.808 1.02c1.193 0 2.163 1.027 2.163 2.288s-.97 2.287-2.163 2.287c-1.193 0-2.164-1.026-2.164-2.287s.97-2.288 2.164-2.288zm-15.52 0c1.14 0 2.078.94 2.158 2.125l.005.163v2.285H133.4v-.44c-.306.273-.709.44-1.151.442-1.191-.002-2.16-1.027-2.16-2.287 0-1.261.971-2.288 2.164-2.288zm-14.328 0c1.193 0 2.163 1.027 2.163 2.288s-.97 2.287-2.163 2.287c-1.193 0-2.164-1.026-2.164-2.287s.97-2.288 2.164-2.288zm4.873-1.528v1.017h-.262a.5.5 0 0 0-.492.41l-.008.09v.514h.762v1.017h-.762v3.055h-1.017V23.46c0-.79.607-1.44 1.379-1.51l.138-.007zm-11.791 1.528v1.017c-.521 0-.951.44-1.006 1.004l-.006.122v2.43h-1.017v-2.43c0-1.181.91-2.143 2.029-2.143zm26.37 0c1.07 0 1.95.88 2.024 1.99l.005.153v2.43h-1.017v-2.43c0-.62-.454-1.126-1.012-1.126-.521 0-.952.44-1.007 1.004l-.006.122v2.43h-1.017v-2.43c0-1.181.91-2.143 2.03-2.143zm-11.528-1.528v.014h1.5c1.135 0 2.059.924 2.059 2.059a2.062 2.062 0 0 1-1.906 2.053l-.153.006h-1.5v1.97h-1.017v-6.102zm-19.977 2.545c-.632 0-1.147.57-1.147 1.27 0 .702.515 1.272 1.147 1.272.633 0 1.147-.57 1.147-1.271 0-.7-.514-1.27-1.147-1.27zm-5.256 0c-.633 0-1.147.57-1.147 1.27 0 .702.514 1.272 1.147 1.272.632 0 1.147-.57 1.147-1.271 0-.7-.515-1.27-1.147-1.27zm41.89 0c-.632 0-1.146.57-1.146 1.27 0 .702.514 1.272 1.147 1.272.632 0 1.147-.57 1.147-1.271 0-.7-.515-1.27-1.147-1.27zm5.267 0c-.633 0-1.147.57-1.147 1.27 0 .702.514 1.272 1.147 1.272.632 0 1.147-.57 1.147-1.271 0-.7-.515-1.27-1.147-1.27zm-15.52 0c-.633 0-1.148.57-1.148 1.27 0 .702.515 1.272 1.147 1.272.633 0 1.147-.57 1.147-1.271 0-.7-.514-1.27-1.147-1.27zm-14.328 0c-.633 0-1.147.57-1.147 1.27 0 .702.514 1.272 1.147 1.272.632 0 1.147-.57 1.147-1.271 0-.7-.515-1.27-1.147-1.27zm9.424-1.514h-1.5v2.084h1.5a1.043 1.043 0 0 0 0-2.084z" fill="#000"/></g></svg>