<svg id="icon-iherblogo" viewBox="0 0 47 16">
            <path id="Path_22" d="M1.5 7.514A1.438 1.438 0 0 0 3 6.038a1.438 1.438 0 0 0-1.5-1.477A1.438 1.438 0 0 0 0 6.037a1.438 1.438 0 0 0 1.5 1.477" class="cls-3" data-name="Path 22" transform="translate(0 -3.971)"></path>
            <path id="Path_23" d="M2.862 40.172c-1.07 0-1.295.581-1.295 1.068v8.377c0 .487.225 1.068 1.295 1.068s1.295-.581 1.295-1.068V41.24c0-.487-.225-1.068-1.295-1.068" class="cls-3" data-name="Path 23" transform="translate(-1.364 -34.973)"></path>
            <path id="Path_24" d="M49.968 4.562c-.874 0-1.317.359-1.317 1.068v5.085h-6.582V5.63c0-.487-.225-1.068-1.295-1.068-.874 0-1.317.359-1.317 1.068v12.985c0 .708.443 1.068 1.317 1.068 1.07 0 1.295-.581 1.295-1.068v-5.561h6.582v5.561c0 .708.443 1.068 1.317 1.068 1.07 0 1.295-.581 1.295-1.068V5.63c0-.487-.225-1.068-1.295-1.068" class="cls-3" data-name="Path 24" transform="translate(-34.351 -3.972)"></path>
            <path id="Path_25" d="M151.409 46.968a1.8 1.8 0 0 0-.875.327 3.717 3.717 0 0 1-1.872.467 2.4 2.4 0 0 1-2.6-2.246h5.163c.833 0 1.522-.125 1.522-1.658a4.334 4.334 0 0 0-4.5-4.564c-2.9 0-4.768 2.121-4.768 5.4 0 3.313 1.893 5.29 5.063 5.29a5.931 5.931 0 0 0 3.214-.828 1.257 1.257 0 0 0 .736-1.035 1.122 1.122 0 0 0-1.09-1.158m-3.2-5.583a1.964 1.964 0 0 1 2.019 2.2h-4.181c.219-1.44.967-2.2 2.168-2.2" class="cls-3" data-name="Path 25" transform="translate(-124.917 -34.21)"></path>
            <path id="Path_26" d="M232.937 39.822a3.088 3.088 0 0 0-2.792 1.628v-.512a.987.987 0 0 0-.245-.753 1.284 1.284 0 0 0-.959-.318c-.829 0-1.249.359-1.249 1.068v8.377c0 .487.224 1.068 1.295 1.068s1.294-.581 1.294-1.068V43.54a2.534 2.534 0 0 1 2.521-1.333c.886-.023 1.248-.372 1.248-1.2s-.333-1.181-1.113-1.181" class="cls-3" data-name="Path 26" transform="translate(-198.226 -34.669)"></path>
            <path id="Path_27" d="M289.785 5.153a3.943 3.943 0 0 0-2.315.636V1.068c0-.487-.225-1.068-1.295-1.068s-1.295.581-1.295 1.068v12.054A1.809 1.809 0 0 0 285.8 15a6.937 6.937 0 0 0 3.327.782 5.045 5.045 0 0 0 5.426-5.449c0-3.145-1.872-5.177-4.768-5.177m-.658 8.49a3.235 3.235 0 0 1-1.657-.446V7.866a2.725 2.725 0 0 1 1.747-.577c1.652 0 2.678 1.226 2.678 3.2s-1.035 3.155-2.769 3.155" class="cls-3" data-name="Path 27" transform="translate(-248.014)"></path>
            <path id="Path_28" d="M347.984 6.423l-.274-.409a.352.352 0 0 0 .237-.347c0-.24-.17-.384-.454-.384h-.414c-.062 0-.075.037-.075.069v1.1c0 .046.025.069.075.069h.16c.05 0 .075-.023.075-.069v-.4h.085l.275.419a.107.107 0 0 0 .095.05h.151a.074.074 0 0 0 .068-.029.067.067 0 0 0 0-.068m-.336-.755c0 .085-.048.121-.159.121h-.175v-.243h.172c.115 0 .162.035.162.121" class="cls-3" data-name="Path 28" transform="translate(-302.097 -4.6)"></path>
            <path id="Path_29" d="M342.437.67a1.215 1.215 0 1 0 1.215 1.215A1.216 1.216 0 0 0 342.437.67m0 2.2a.985.985 0 1 1 .985-.985.988.988 0 0 1-.985.985" class="cls-3" data-name="Path 29" transform="translate(-297.064 -.583)"></path>
        </svg>