<?xml version="1.0" encoding="UTF-8" standalone="no"?>
<svg
   xmlns:dc="http://purl.org/dc/elements/1.1/"
   xmlns:cc="http://creativecommons.org/ns#"
   xmlns:rdf="http://www.w3.org/1999/02/22-rdf-syntax-ns#"
   xmlns:svg="http://www.w3.org/2000/svg"
   xmlns="http://www.w3.org/2000/svg"
   xmlns:sodipodi="http://sodipodi.sourceforge.net/DTD/sodipodi-0.dtd"
   xmlns:inkscape="http://www.inkscape.org/namespaces/inkscape"
   viewBox="0 0 300 23"
   version="1.1"
   id="svg2"
   inkscape:version="0.91 r13725"
   sodipodi:docname="logo.svg">
  <metadata
     id="metadata36">
    <rdf:RDF>
      <cc:Work
         rdf:about="">
        <dc:format>image/svg+xml</dc:format>
        <dc:type
           rdf:resource="http://purl.org/dc/dcmitype/StillImage" />
        <dc:title>inavokich</dc:title>
      </cc:Work>
    </rdf:RDF>
  </metadata>
  <defs
     id="defs34" />
  <sodipodi:namedview
     pagecolor="#ffffff"
     bordercolor="#666666"
     borderopacity="1"
     objecttolerance="10"
     gridtolerance="10"
     guidetolerance="10"
     inkscape:pageopacity="0"
     inkscape:pageshadow="2"
     inkscape:window-width="1855"
     inkscape:window-height="1056"
     id="namedview32"
     showgrid="false"
     inkscape:zoom="3.8391406"
     inkscape:cx="150"
     inkscape:cy="11.5"
     inkscape:window-x="65"
     inkscape:window-y="24"
     inkscape:window-maximized="1"
     inkscape:current-layer="svg2" />
  <title
     id="title4">inavokich</title>
  <g
     stroke="none"
     stroke-width="1"
     fill="none"
     fill-rule="evenodd"
     id="g6">
    <g
       transform="translate(-750.000000, -30.000000)"
       id="g8">
      <g
         transform="translate(750.000000, 30.000000)"
         id="g10">
        <path
           d="M0.0782608696,1.30333333 L3.82695652,1.30333333 L3.82695652,22.6345556 L0.0782608696,22.6345556 L0.0782608696,1.30333333 Z"
           fill="#262626"
           id="path12" />
        <path
           d="M22.0826087,1.30333333 L25.6278261,1.30333333 L37.293913,16.0527222 L37.293913,1.30333333 L41.0582609,1.30333333 L41.0582609,22.6345556 L37.8534783,22.6345556 L25.8456522,7.45838889 L25.8456522,22.6345556 L22.0826087,22.6345556 L22.0826087,1.30333333"
           fill="#262626"
           id="path14" />
        <path
           d="M72.2817391,14.1628889 L68.5173913,5.62988889 L64.7843478,14.1628889 L72.2817391,14.1628889 L72.2817391,14.1628889 Z M66.8073913,1.15 L70.3526087,1.15 L79.9343478,22.6345556 L75.8908696,22.6345556 L73.6813043,17.4851111 L63.3847826,17.4851111 L61.1452174,22.6345556 L57.2256522,22.6345556 L66.8073913,1.15 L66.8073913,1.15 Z"
           fill="#262626"
           id="path16" />
        <path
           d="M114.096522,1.30333333 L118.326522,1.30333333 L124.89,17.6985 L131.423478,1.30333333 L135.56087,1.30333333 L126.507391,22.7866111 L123.147391,22.7866111 L114.096522,1.30333333"
           fill="#262626"
           id="path18" />
        <path
           d="M168.183913,11.9689444 C168.183913,7.82511111 165.105652,4.3815 160.781739,4.3815 C156.456522,4.3815 153.439565,7.76377778 153.439565,11.9689444 C153.439565,16.1127778 156.51913,19.5576667 160.843043,19.5576667 C165.166957,19.5576667 168.183913,16.1741111 168.183913,11.9689444 L168.183913,11.9689444 Z M149.427391,11.9689444 C149.427391,5.96466667 154.155652,0.936611111 160.843043,0.936611111 C167.530435,0.936611111 172.198696,5.90461111 172.198696,11.9689444 C172.198696,17.9719444 167.470435,23 160.781739,23 C154.093043,23 149.427391,18.0332778 149.427391,11.9689444 L149.427391,11.9689444 Z"
           fill="#000"
           id="path20" />
        <path
           d="M189.267391,1.30333333 L193.094348,1.30333333 L193.094348,12.0302778 L203.452174,1.30333333 L208.150435,1.30333333 L199.098261,10.4752222 L208.554783,22.6345556 L203.920435,22.6345556 L196.484348,13.0346111 L193.094348,16.4488333 L193.094348,22.6345556 L189.267391,22.6345556 L189.267391,1.30333333"
           fill="#262626"
           id="path22" />
        <path
           d="M224.474348,1.30333333 L228.301304,1.30333333 L228.301304,22.6345556 L224.474348,22.6345556 L224.474348,1.30333333 Z"
           fill="#262626"
           id="path24" />
        <path
           d="M245.594348,11.9689444 C245.594348,5.90461111 250.227391,0.936611111 256.823478,0.936611111 C260.835652,0.936611111 263.263043,2.30894444 265.347391,4.25883333 L262.888696,7.03161111 C261.146087,5.44716667 259.282174,4.3815 256.793478,4.3815 C252.622174,4.3815 249.606522,7.73311111 249.606522,11.9689444 C249.606522,16.1434444 252.622174,19.5576667 256.793478,19.5576667 C259.467391,19.5576667 261.177391,18.4907222 263.043913,16.7836111 L265.502609,19.2216111 C263.230435,21.5382222 260.741739,23 256.668261,23 C250.322609,23 245.594348,18.1546667 245.594348,11.9689444"
           fill="#262626"
           id="path26" />
        <path
           d="M281.950435,1.30333333 L285.776087,1.30333333 L285.776087,10.1711111 L296.167826,10.1711111 L296.167826,1.30333333 L299.994783,1.30333333 L299.994783,22.6345556 L296.167826,22.6345556 L296.167826,13.6453889 L285.776087,13.6453889 L285.776087,22.6345556 L281.950435,22.6345556 L281.950435,1.30333333"
           fill="#262626"
           id="path28" />
        <path
           d="M96.746087,13.6594444 L96.746087,13.6594444 C95.37,13.6594444 94.2547826,12.5669444 94.2547826,11.2188889 C94.2547826,9.87211111 95.37,8.77961111 96.746087,8.77961111 C98.1221739,8.77961111 99.2373913,9.87211111 99.2373913,11.2188889 C99.2373913,12.5669444 98.1221739,13.6594444 96.746087,13.6594444"
           fill="#262626"
           id="path30" />
      </g>
    </g>
  </g>
</svg>
