<svg xmlns="http://www.w3.org/2000/svg" width="215.5" height="40.226" viewBox="0 0 290.161 50.226"><g id="logo_v1" transform="translate(-143.5 -577.48)"><g id="Group_656" data-name="Group 656" transform="translate(144 577.48)"><path id="Path_1104" data-name="Path 1104" d="M984.237,451v.094l-7.878,4.782L962.8,464.113l-13.654-8.29L941.2,451Z" transform="translate(-941.198 -451)" fill="#395fbb"></path><path id="Subtraction_1" data-name="Subtraction 1" d="M21.6,43.522h0l-5.923-3.6-3.53-2.143-3.452-2.1a21.7,21.7,0,0,1-6.325-7.455A21.283,21.283,0,0,1,0,18.407V0L1.448.879,21.635,13.136,41.688.96,43.039.139V18.407a21.537,21.537,0,0,1-9.7,17.982l-.007,0-1.355.822L27.52,39.926l-5.921,3.6Z" transform="translate(0 3.113)" fill="#648be8" stroke="rgba(0,0,0,0)" stroke-miterlimit="10" stroke-width="1"></path></g><path id="Path_5629" data-name="Path 5629" d="M3.438,0V-15.5H1.5V0ZM18.653,0V-12.128h.1L27.236,0h1.88V-15.5H27.2V-3.33h-.1L18.621-15.5h-1.88V0ZM41.668-4.157C41.851-1.482,44.107.258,47.49.258c3.47,0,5.726-1.794,5.726-4.662,0-2.191-1.278-3.48-4.512-4.189L46.986-8.97c-2.116-.462-2.943-1.3-2.943-2.524,0-1.579,1.493-2.524,3.427-2.524,2.02,0,3.362,1.042,3.534,2.739h1.934c-.086-2.632-2.32-4.479-5.414-4.479-3.212,0-5.468,1.794-5.468,4.351,0,2.2,1.343,3.609,4.447,4.286l1.719.376c2.148.473,3.008,1.332,3.008,2.632,0,1.525-1.525,2.632-3.631,2.632-2.224,0-3.771-1.01-4-2.675ZM71.622,0V-13.761H76.51V-15.5H64.8v1.74h4.888V0ZM96.775,0h2.03L93.09-15.5H91.178L85.463,0h2.03l1.558-4.437h6.166ZM92.1-13.148h.064L94.648-6.08H89.621ZM116.825.258c3.427,0,5.726-1.708,6.435-4.77H121.3a4.276,4.276,0,0,1-4.469,2.986c-3.062,0-5.006-2.428-5.006-6.23,0-3.771,1.966-6.22,5-6.22a4.434,4.434,0,0,1,4.479,3.362h1.955a6.156,6.156,0,0,0-6.435-5.146c-4.243,0-6.982,3.137-6.982,8C109.842-2.847,112.549.258,116.825.258Zm28.418-2h-7.477V-15.5h-1.934V0h9.41Zm22.026,0H159.6V-7.068h7.272V-8.787H159.6v-4.974h7.67V-15.5h-9.6V0h9.6ZM190.187,0h2.03L186.5-15.5h-1.912L178.876,0h2.03l1.558-4.437h6.166Zm-4.673-13.148h.064L188.06-6.08h-5.027ZM206.2,0V-12.128h.1L214.781,0h1.88V-15.5h-1.912V-3.33h-.1L206.166-15.5h-1.88V0Z" transform="translate(215 605)" fill="#434375"></path></g></svg>