<svg xmlns="http://www.w3.org/2000/svg" xmlns:xlink="http://www.w3.org/1999/xlink" width="85.129" height="79.37" viewBox="0 0 85.129 79.37"><defs><style>.a{fill:none;}.b{fill:#231f20;}.c{clip-path:url(#a);}</style><clipPath id="a"><path class="a" d="M0,0H85.129V79.37H0Z" transform="translate(0 0.63)"/></clipPath></defs><g transform="translate(0 -1)"><path class="b" d="M.708.865C.652.721.6.577.547.432S.442.144.387,0Q.166.977.034,1.921a7.325,7.325,0,0,1,.932-.149C.934,1.626.9,1.477.855,1.328s-.09-.3-.147-.463" transform="translate(65.802 60.494)"/><path class="b" d="M.707.865C.651.721.6.577.547.432S.441.144.386,0Q.167.977.034,1.92a7.572,7.572,0,0,1,.932-.148C.933,1.625.895,1.477.854,1.328S.765,1.024.707.865" transform="translate(54.161 61.923)"/><path class="b" d="M.707.864C.651.72.6.576.548.432S.442.143.387,0Q.166.975.034,1.92a7.5,7.5,0,0,1,.931-.149c-.032-.146-.07-.3-.111-.444S.766,1.023.707.864" transform="translate(40.579 63.591)"/><path class="b" d="M.5,2.45a1.332,1.332,0,0,0,.164-.127l.181-.192a1.271,1.271,0,0,0,.274-.254,1.763,1.763,0,0,0,.213-.332,1.7,1.7,0,0,0,.132-.361A1,1,0,0,0,1.488.83.433.433,0,0,0,1.476.775.316.316,0,0,1,1.463.721C1.393.45,1.132.267.683.172L.6.137.445.076A1.375,1.375,0,0,0,.274.018.376.376,0,0,0,.143,0,.488.488,0,0,0,.081.013L0,.041a1.615,1.615,0,0,0,.012.19C.021.3.029.369.038.443q.054.446.1,1c.031.369.07.755.119,1.155l.1-.056c.035-.02.084-.05.147-.092" transform="translate(71.018 58.062)"/><path class="b" d="M1.124.747c0-.045,0-.086-.01-.123L1.1.534a.825.825,0,0,0-.247-.4A.65.65,0,0,0,.315.009C.137.031.032.1,0,.218,0,.323,0,.431,0,.54A3.015,3.015,0,0,0,.023.859c.013.1.054.344.125.742.011.083.022.157.034.222s.021.13.028.19.013.119.017.178.008.113.013.157A2.386,2.386,0,0,0,1.125.893c0-.052,0-.1,0-.146" transform="translate(59.16 59.873)"/><path class="b" d="M1.123.747c0-.046,0-.087-.009-.124L1.1.534a.835.835,0,0,0-.248-.4A.641.641,0,0,0,.315.009C.138.031.032.1,0,.217,0,.323,0,.431,0,.539s.01.216.022.32S.078,1.2.148,1.6c.01.082.022.156.034.222s.021.13.028.189.013.12.017.179.007.112.013.157A2.381,2.381,0,0,0,1.125.893c0-.052,0-.1,0-.146" transform="translate(29.091 63.564)"/><g transform="translate(0 0.37)"><path class="a" d="M0,0H85.129V79.37H0Z" transform="translate(0 0.63)"/><g class="c"><path class="b" d="M17.038,79.37h0l-.306-22.988c-4.566.027-8.958.04-13.053.04l-2.68,0a.642.642,0,0,1-.594-.344.709.709,0,0,1-.113-.364c-.388-10.41-.3-21-.224-31.234.037-4.736.076-9.631.067-14.445a.661.661,0,0,1,.185-.481.735.735,0,0,1,.52-.2.821.821,0,0,1,.13.01.681.681,0,0,1,.21-.033H1.2q.864.008,1.728.018A.746.746,0,0,1,2.909,9.2V4.846a.727.727,0,0,1,.667-.709h.04l1.972.148L5.6,3.418,5.645.689A.674.674,0,0,1,6.307.011.844.844,0,0,1,6.44,0a.773.773,0,0,1,.1.006c2.894.43,5.719.83,8.1,1.165C29.188,3.221,41.324,4.9,53.989,6.258a.787.787,0,0,1,.233.064.65.65,0,0,1,.46.526.61.61,0,0,1,.014.213c.076,4.076.1,8.12.112,11.189.03,7.229.007,14.6-.022,21.479,0,1.232-.021,2.485-.037,3.7-.03,2.3-.06,4.674-.016,7.005L85.04,47.368l.09,23.406-68.091,8.6Zm4.946-16.027c-.027,0-.055,0-.082,0a.394.394,0,0,0-.352.259l.009.048c.019.1.031.166.041.233.018.1.031.194.041.284.032.245.053.551.065.937s.019.847.022,1.336c0,.507.013.958.03,1.342.014.354.038.67.069.941.021.167.041.3.064.428s.048.247.082.391a.45.45,0,0,0,.5.351l.078,0a.417.417,0,0,0,.4-.354c-.021-.1-.035-.194-.046-.284l0-.04-.009-.077c0-.02-.005-.04-.008-.065l-.014-.1c-.038-.336-.064-.661-.078-.968-.02-.338-.036-.769-.049-1.356-.012-.54-.027-.982-.047-1.352s-.045-.7-.078-.952c-.011-.1-.028-.217-.048-.344s-.036-.224-.056-.321l-.04-.041c-.008,0-.012-.024-.014-.043a.435.435,0,0,1,0-.113c-.009-.075-.023-.108-.047-.108a.15.15,0,0,0-.062.042A.936.936,0,0,0,21.983,63.343Zm7.523-1.587c-.036,0-.069,0-.11,0l-.156.019c-.689.085-1.049.346-1.069.776a8.3,8.3,0,0,0,.036,1.172c.038.39.089.847.154,1.4l.149,1.213a8.145,8.145,0,0,1,.063.835c.005.293.014.526.025.715l-.006.409a2.254,2.254,0,0,0,0,.244,1.872,1.872,0,0,0,.014.208.625.625,0,0,0,.573.619h.005l.017,0,.018,0h.005a.367.367,0,0,0,.172-.073.337.337,0,0,1,.106-.063,8.1,8.1,0,0,0,.019-1.495q-.03-.618-.05-1c-.011-.27-.015-.434-.013-.529.193.13.419.3.673.5.28.223.605.489.967.792a12.694,12.694,0,0,0,1.643,1.222c.344-.131.508-.285.486-.455a.207.207,0,0,0-.045-.1,3.372,3.372,0,0,0-.507-.532c-.232-.2-.481-.393-.739-.582L30.557,66.05l-.393-.257c-.09-.056-.155-.1-.192-.128a.18.18,0,0,1-.065-.122.156.156,0,0,1,.04-.125.864.864,0,0,1,.143-.125,2.931,2.931,0,0,0,.72-.857,1.765,1.765,0,0,0,.262-1.1,1.823,1.823,0,0,0-.554-1.108A1.41,1.41,0,0,0,29.506,61.756Zm11.267-1.378a.271.271,0,0,0-.057,0,.268.268,0,0,0-.259.191c-.076.285-.144.584-.2.889-.074.389-.142.784-.207,1.207-.173,1.108-.291,1.771-.382,2.151-.009.054-.073.1-.2.148a.367.367,0,0,0-.222.129.158.158,0,0,0-.032.117c.006.044.07.1.179.17s.163.124.17.184a4.645,4.645,0,0,1-.223,1.227,2.874,2.874,0,0,0-.118,1.066l.014.1c.032.145.178.241.432.286a.164.164,0,0,0,.068.013h.017a.674.674,0,0,1,.072-.008.22.22,0,0,0,.206-.162,7.981,7.981,0,0,0,.216-1.283c.031-.3.061-.557.091-.768.028-.176.057-.352.082-.5a1.3,1.3,0,0,1,.646-.352l.749-.159a7.453,7.453,0,0,1,.543,1.369c.158.505.427.773.8.8.052-.007.132-.07.238-.188a.509.509,0,0,0,.14-.413.943.943,0,0,0-.1-.3c-.275-.561-.553-1.191-.829-1.873s-.565-1.454-.861-2.32c-.029-.131-.063-.269-.112-.449q-.062-.229-.123-.448a1.311,1.311,0,0,0-.5-.752A.454.454,0,0,0,40.774,60.378Zm-4.027.893a.631.631,0,0,0-.1.006.42.42,0,0,0-.131.028l-.246.093-.093.035-.141.053-.049.019-.025.01c-.118.046-.27.105-.5.2-.189.079-.368.16-.547.248a3.359,3.359,0,0,0-.443.257l-.677.377a.6.6,0,0,0-.328.561c.029.237.254.369.671.392l.006.119,0,.07.005.111c.01.194.018.347.022.465.006.184.007.275,0,.305-.008.061-.063.127-.168.2a.292.292,0,0,0-.145.2l0,.045c.014.112.123.224.324.333,0,.139,0,.266.009.4.005.116.016.245.036.432s.046.322.071.443l.018.086.019.09c.019.094.039.189.06.287a1.015,1.015,0,0,0,.363.567,1.2,1.2,0,0,0,.611.275,6.754,6.754,0,0,0,.878.054,9.2,9.2,0,0,0,1.088-.069,1.958,1.958,0,0,0,.2-.031c.055-.01.111-.018.18-.026l.02,0a.345.345,0,0,0,.234-.159.422.422,0,0,0,.062-.285.245.245,0,0,0-.011-.044.088.088,0,0,1-.011-.042c-.085-.292-.21-.44-.372-.44l-.033,0a.087.087,0,0,0-.032.01.062.062,0,0,1-.031.01.3.3,0,0,0-.158.1.305.305,0,0,1-.178.107c-.059.006-.114.014-.162.024a.513.513,0,0,1-.074.014l-.014,0-.028,0-.016,0-.018,0a5.461,5.461,0,0,1-.625.042,1.929,1.929,0,0,1-.919-.18,1.352,1.352,0,0,1-.151-.5,5.091,5.091,0,0,1,.052-1.33,2.887,2.887,0,0,1,.818-.237,6.7,6.7,0,0,0,.851-.172.26.26,0,0,0,.211-.116c.033-.049.064-.092.092-.125l.022-.025.012-.013.006-.008,0-.005a.137.137,0,0,0,.064-.131.794.794,0,0,0-.193-.271.991.991,0,0,0-.391-.079,1.237,1.237,0,0,0-.16.011,2.193,2.193,0,0,0-.215.044l-.022.005-.161.041-.019,0-.1.025-.171.043-.071.018-.059.014a1.909,1.909,0,0,1-.215.044,1.474,1.474,0,0,1-.174.011,1.127,1.127,0,0,1-.247-.028c-.028-.35-.041-.625-.041-.842a2.472,2.472,0,0,1,.029-.466c.128-.073.288-.154.489-.248s.421-.185.677-.292c.287-.12.5-.213.676-.293.191-.086.356-.169.491-.246a.155.155,0,0,0,.059-.155.559.559,0,0,0-.066-.174l-.016-.032-.008-.015c-.028-.058-.044-.092-.051-.112A1.638,1.638,0,0,0,36.747,61.271Zm8.014-.832h0l-.284.068a.273.273,0,0,0-.226.186.594.594,0,0,0-.008.114.4.4,0,0,0,.177.249l.276.227c.032.163.067.352.117.63.039.214.073.445.1.688.034.294.054.491.071.681.037.4.061.677.084.951.027.329.054.649.083.95s.053.509.073.681c.033.286.086.622.157,1a.4.4,0,0,0,.268.164,1.277,1.277,0,0,0,.233.032l.031,0a.352.352,0,0,0,.234-.165c.078-.1.148-.2.207-.3a3.987,3.987,0,0,0,.679-.83c.082-.125.19-.291.293-.466.094-.155.192-.312.292-.475a2.1,2.1,0,0,0,.229-.516c.026-.076.049-.157.077-.269s.046-.185.074-.27a1.555,1.555,0,0,0,.06-.7,2.694,2.694,0,0,0-.716-1.416,2.188,2.188,0,0,0-.491-.414,4.662,4.662,0,0,0-2.091-.807Zm9.591-1.729-.053,0a.273.273,0,0,0-.26.191c-.072.279-.14.578-.2.889s-.124.663-.209,1.208c-.146.957-.278,1.7-.381,2.15-.009.055-.074.1-.2.149s-.2.081-.22.13a.141.141,0,0,0-.031.116c0,.044.064.1.178.171s.161.122.169.183a4.633,4.633,0,0,1-.223,1.227,2.871,2.871,0,0,0-.118,1.066l.014.1c.032.146.177.242.431.286a.213.213,0,0,0,.068.012h.019l.022,0a.417.417,0,0,0,.05-.005.22.22,0,0,0,.206-.162,7.648,7.648,0,0,0,.216-1.281c.031-.321.062-.573.094-.769.019-.141.044-.3.076-.482l0-.014a1.266,1.266,0,0,1,.646-.351l.751-.16a7.093,7.093,0,0,1,.541,1.37c.158.506.427.773.8.795.053-.005.133-.069.238-.188a.514.514,0,0,0,.142-.412,1.065,1.065,0,0,0-.106-.3c-.286-.591-.565-1.221-.829-1.872-.281-.692-.563-1.451-.862-2.32-.023-.109-.057-.247-.111-.45l-.026-.1,0-.008-.017-.058c0-.008,0-.017-.007-.025a.4.4,0,0,0-.011-.04l-.009-.034,0-.012-.017-.063c-.009-.03-.017-.06-.025-.093l-.005-.019a1.3,1.3,0,0,0-.5-.752A.469.469,0,0,0,54.352,58.711Zm5.222-.646c-.029,0-.06,0-.089,0h-.019l-.156.019c-.687.084-1.047.345-1.069.776a8.822,8.822,0,0,0,.036,1.172c.041.417.092.886.154,1.394l.15,1.215a7.662,7.662,0,0,1,.062.834c.005.277.015.518.027.715l-.007.407a2.055,2.055,0,0,0,0,.245,1.458,1.458,0,0,0,.014.207.622.622,0,0,0,.573.618h.005a.038.038,0,0,1,.016,0l.018,0h.006a.356.356,0,0,0,.172-.072c.06-.046.088-.062.105-.063a8.005,8.005,0,0,0,.02-1.5l-.008-.167-.012-.225-.007-.144c-.009-.176-.016-.333-.022-.464-.013-.262-.018-.435-.014-.529.189.128.421.3.672.5.279.222.6.488.968.791a11.739,11.739,0,0,0,1.642,1.224c.343-.132.508-.285.487-.455a.178.178,0,0,0-.045-.1,3.257,3.257,0,0,0-.508-.531c-.214-.183-.462-.379-.738-.583l-1.379-1.007-.394-.257c-.1-.061-.154-.1-.191-.13a.176.176,0,0,1-.066-.122.156.156,0,0,1,.041-.124.882.882,0,0,1,.144-.125,2.947,2.947,0,0,0,.72-.857,1.731,1.731,0,0,0-.293-2.2A1.413,1.413,0,0,0,59.574,58.064ZM66,57.281a.271.271,0,0,0-.057,0,.275.275,0,0,0-.26.191c-.057.213-.123.5-.2.889-.068.36-.134.744-.208,1.209-.173,1.09-.3,1.812-.381,2.148-.007.055-.071.1-.2.15a.367.367,0,0,0-.222.129.158.158,0,0,0-.031.117c.006.045.067.1.18.17s.162.123.169.183a4.794,4.794,0,0,1-.222,1.226,2.86,2.86,0,0,0-.118,1.066l.013.1c.032.146.177.242.43.286a.191.191,0,0,0,.067.014h.02l.072-.009a.221.221,0,0,0,.208-.161,7.94,7.94,0,0,0,.214-1.282c.035-.34.062-.563.093-.77l.018-.113c.027-.17.047-.293.062-.382a1.276,1.276,0,0,1,.648-.351l.749-.16a6.865,6.865,0,0,1,.541,1.37c.16.506.429.774.8.8.052-.007.129-.069.237-.188a.507.507,0,0,0,.141-.413.957.957,0,0,0-.1-.3c-.237-.476-.509-1.088-.83-1.871-.272-.669-.561-1.45-.86-2.321-.043-.183-.076-.313-.112-.45-.032-.116-.064-.23-.095-.344l-.029-.1a1.3,1.3,0,0,0-.5-.752A.48.48,0,0,0,66,57.281Zm4.493-1.018c-.118,0-.23,0-.342.014l-.111.011-.041,0-.04,0-.025,0-.022,0-.042.005a1.05,1.05,0,0,0-.386.127.333.333,0,0,0-.152.369.828.828,0,0,0,.715.387,3.868,3.868,0,0,1,.121.524c.033.216.059.392.078.549.051.423.081.723.1,1.005.034.461.054.793.062,1.044a.533.533,0,0,0-.213.162.326.326,0,0,0-.1.249.316.316,0,0,0,.1.193.9.9,0,0,0,.2.132,6.357,6.357,0,0,0,.05.821c.035.286.06.633.076,1.03l.229,1.86a.371.371,0,0,0,.374.254.713.713,0,0,0,.086-.005.462.462,0,0,0,.258-.111l.992-.755a3.332,3.332,0,0,0,.933-1.013,1.844,1.844,0,0,0,.228-1.141,1.763,1.763,0,0,0-1.091-1.325l-.115-.021c-.147-.05-.24-.084-.309-.114a.628.628,0,0,1-.238-.192l.184-.158c.14-.115.295-.247.5-.428A4.349,4.349,0,0,0,73,59.29a2.785,2.785,0,0,0,.339-.5,1.6,1.6,0,0,0,.167-.563,1.047,1.047,0,0,0,0-.108.651.651,0,0,0-.005-.1,1.435,1.435,0,0,0-.428-.818,3.5,3.5,0,0,0-1.277-.726,3.4,3.4,0,0,0-.613-.156,4.756,4.756,0,0,0-.572-.055Zm9.9-.769a.646.646,0,0,0-.117.007,1.682,1.682,0,0,0-.789.381,4.679,4.679,0,0,0-.906,1,3.793,3.793,0,0,0-.511,1.138,4.115,4.115,0,0,0-.086,1.639c.028.228.078.52.154.891a4.736,4.736,0,0,0,.355,1.048,2.477,2.477,0,0,0,.437.609,4.974,4.974,0,0,0,.735.649,5.311,5.311,0,0,0,.915.538,2.773,2.773,0,0,0,.971.271l.034,0,.025,0a.255.255,0,0,0,.211-.144.513.513,0,0,0,.077-.337.312.312,0,0,0-.212-.257c-.066-.018-.148-.036-.245-.054a1.9,1.9,0,0,1-.245-.068,1.706,1.706,0,0,1-.41-.2c-.126-.094-.214-.16-.275-.21s-.174-.139-.328-.27-.281-.251-.407-.374a3.8,3.8,0,0,1-.868-1.907,4.616,4.616,0,0,1-.027-.964,3.694,3.694,0,0,1,.139-.792,2.594,2.594,0,0,1,.258-.619,2.531,2.531,0,0,1,.322-.458,1.82,1.82,0,0,1,.571-.466c.163-.07.327-.131.5-.186a.411.411,0,0,0,.257-.207.536.536,0,0,0,.042-.292c-.016-.136-.051-.213-.107-.236A.96.96,0,0,0,80.393,55.494Zm-4.864,1.274a.507.507,0,0,0-.084.005.4.4,0,0,0-.354.257c.025.125.04.212.052.283.009.053.026.163.041.284.032.267.053.582.064.936.012.309.02.747.022,1.338,0,.464.014.9.03,1.341.014.388.038.705.07.942.013.1.032.23.063.428.03.158.057.286.083.391a.445.445,0,0,0,.491.35l.083,0a.421.421,0,0,0,.4-.355c-.023-.105-.037-.206-.047-.283l-.005-.049,0-.011,0-.023-.005-.053a.169.169,0,0,0,0-.021v-.01l0-.022a.177.177,0,0,0,0-.023v-.007l-.008-.066c-.033-.252-.06-.578-.079-.969-.021-.369-.037-.8-.05-1.355-.013-.59-.027-1.008-.047-1.353-.02-.384-.046-.7-.077-.951-.016-.13-.032-.242-.049-.345-.018-.127-.036-.225-.056-.32l-.04-.041c-.007,0-.012-.013-.015-.043a.4.4,0,0,1,0-.112c-.009-.073-.024-.107-.048-.107a.147.147,0,0,0-.062.041A.982.982,0,0,0,75.529,56.768ZM1.55,10.742c0,4.409-.03,8.894-.063,13.232l0,.492C1.4,34.475,1.324,44.826,1.684,55l2.423,0c14.292,0,29.279-.146,45.818-.446.233-13.765.154-27.974-.245-43.44-3.537,0-7.135-.017-11.665-.046C27.141,11,15.554,10.9,1.55,10.742Zm51.756-2.15-.979.934-.344.328-.019.017-.879.839c.395,15.15.483,29.1.271,42.647l.929-1.046.526-.594.526-.593c-.023-.964-.015-1.947-.007-2.9v-.183c0-.4.008-.789.01-1.271.009-2.325.019-4.446.032-6.674v-.048C53.424,29.737,53.477,19.075,53.306,8.591ZM4.323,5.605V9.2a.656.656,0,0,1-.016.16l1.254.014,3.869.041.157,0,.164,0,.173,0,.184,0c13.106.139,26.657.282,39.98.286l.2-.189c.1-.1.2-.191.3-.29-2.029-.2-4.121-.369-5.966-.52L44.509,8.7l-.022,0-.213-.017-.614-.05-.613-.05C29.776,7.5,16.1,6.476,4.323,5.605ZM7.046,1.5h0l-.015.964L7,4.39l.2.015,1.541.115c3.514.262,7.088.514,10.544.757l.179.013h.006l.122.009.4.028.061,0C30.5,6.065,41.3,6.823,51.892,7.943l.022,0,.014,0,.053-.05.166-.157.258-.245c-2.7-.3-5.588-.644-8.815-1.046C31.3,4.924,19,3.257,7.046,1.5Z" transform="translate(0 0.63)"/></g></g><path class="b" d="M1.043.256a2.736,2.736,0,0,0-.5-.21A.868.868,0,0,0,.254,0L.131.018A.4.4,0,0,0,0,.057C.026.393.05.7.069.986s.047.568.082.85c.015.119.035.235.06.349s.054.24.086.38l.078-.01c.072-.084.143-.159.21-.224s.135-.132.2-.2A2.164,2.164,0,0,0,1.2,1.61a1.61,1.61,0,0,0,.152-.555.936.936,0,0,0,0-.119c0-.041,0-.08-.007-.118A.86.86,0,0,0,1.043.256" transform="translate(71.328 62.136)"/><path class="b" d="M1.38,1.244c-.01-.051-.022-.1-.035-.154Q1.158.4,0,0,.056.638.119,1.292c.043.435.092.888.15,1.355.026.216.053.431.079.646s.057.434.092.656A3.563,3.563,0,0,0,1.4,1.4c0-.051-.014-.1-.024-.155" transform="translate(45.706 62.59)"/><path class="b" d="M.683,1.414A.707.707,0,0,0,.683,0a.707.707,0,0,0,0,1.414" transform="translate(5.103 21.711)"/><path class="b" d="M.683,1.414A.707.707,0,0,0,.683,0a.707.707,0,0,0,0,1.414" transform="translate(7.205 21.711)"/><path class="b" d="M.683,0a.707.707,0,0,0,0,1.414A.707.707,0,0,0,.683,0" transform="translate(10.868 49.857)"/><path class="b" d="M.683,0a.707.707,0,0,0,0,1.414A.707.707,0,0,0,.683,0" transform="translate(12.97 49.857)"/><path class="b" d="M.683,0a.707.707,0,0,0,0,1.414A.707.707,0,0,0,.683,0" transform="translate(45.337 49.857)"/><path class="b" d="M.683,0a.707.707,0,0,0,0,1.414A.707.707,0,0,0,.683,0" transform="translate(18.345 49.857)"/><path class="b" d="M.621,31.677A.609.609,0,0,1,0,31.046a.73.73,0,0,1,.68-.785c1.854-.128,2.751-.827,3-2.336a17.821,17.821,0,0,0,.012-4.167c-.032-.43-.065-.874-.087-1.3a.631.631,0,0,1,.162-.48.7.7,0,0,1,.509-.2.708.708,0,0,1,.743.682c.022.408.055.825.09,1.266l.007.086.016,0,.018,0a17.266,17.266,0,0,0,3.933-1.07,15.526,15.526,0,0,1-2.913-3.021c-.167.088-.325.176-.484.269a.692.692,0,0,1-.356.1.735.735,0,0,1-.669-.558.652.652,0,0,1,.312-.767,12.817,12.817,0,0,1,5.645-1.732c1.751,0,2.757.765,2.991,2.274.214,1.378-.456,2.608-1.99,3.655a12.411,12.411,0,0,0,2.028,1.466,2.83,2.83,0,0,0,1.324.4c1.267,0,1.991-1.44,2.154-4.28.1-1.789.036-3.626-.029-5.4-.042-1.148-.085-2.334-.082-3.493,0-.858.007-1.728.012-2.569.017-2.752.034-5.6-.065-8.4A.64.64,0,0,1,17.13.2a.712.712,0,0,1,.513-.2.7.7,0,0,1,.732.682c.1,2.819.081,5.686.064,8.459-.006.912-.011,1.856-.013,2.784,0,1.138.039,2.3.078,3.421.054,1.546.111,3.145.055,4.71-.055,1.583-.146,4.233-1.674,5.586a2.533,2.533,0,0,1-1.724.658A5.991,5.991,0,0,1,11.7,24.782c-.205-.159-.417-.321-.632-.486-.25-.192-.508-.39-.767-.591a19.076,19.076,0,0,1-4.773,1.458.811.811,0,0,1-.128.01.735.735,0,0,1-.183-.023,9.9,9.9,0,0,1-.431,4.117C4.2,30.757,2.9,31.522.68,31.675Zm9.973-13.261a5.74,5.74,0,0,0-1.164.165H9.423l-.165.035a12.612,12.612,0,0,0-1.768.5,14.555,14.555,0,0,0,2.145,2.091c.213.181.414.352.61.525l.11.1.148.132a5.05,5.05,0,0,0,1.16-1.051,1.868,1.868,0,0,0,.418-1.583,1.241,1.241,0,0,0-.825-.811A1.9,1.9,0,0,0,10.594,18.415Z" transform="translate(21.443 21.894)"/><path class="b" d="M10.163,22.812a3.986,3.986,0,0,1-3.024-1.14,6,6,0,0,1-1.121-3.99c.025-3.182.009-6.449-.005-9.332h0c-.85,0-3.735-.119-5.192-1.656A2.973,2.973,0,0,1,.005,4.4C.181,1.087,4.626.83,5.984.83h.009V.683A.669.669,0,0,1,6.7,0a.667.667,0,0,1,.706.683c-.006,2.794.012,5.635.029,8.382.01,1.655.021,3.367.027,5.054,0,.337-.024.757-.053,1.242-.123,2.041-.308,5.126,1.42,5.832a4.62,4.62,0,0,0,1.51.217,2.611,2.611,0,0,0,1.2-.208c.569-.331.718-1.192.827-1.821l.025-.143a13.779,13.779,0,0,0,.175-2.454.707.707,0,0,1,1.414,0c0,1.521,0,4.352,2.427,4.546.222.018.459.035.7.035a1.819,1.819,0,0,0,1.53-.538,4.09,4.09,0,0,0,.531-2.089c.033-.481.03-.975.026-1.451,0-.168,0-.335,0-.5a.708.708,0,0,1,1.415,0c0,.163,0,.328,0,.493a9.631,9.631,0,0,1-.424,3.59c-.506,1.294-1.526,1.9-3.21,1.9-.178,0-.37-.006-.57-.019a3.319,3.319,0,0,1-3.017-1.727,2.686,2.686,0,0,1-1.931,1.665A6.409,6.409,0,0,1,10.163,22.812ZM5.9,2.243c-2.709,0-4.21.687-4.463,2.043A1.644,1.644,0,0,0,1.772,5.7c.953,1.146,3.482,1.235,4.234,1.235C6,5.3,6,3.717,6,2.244H5.9Z" transform="translate(2.427 24.941)"/><path class="b" d="M.03.682C-.076,4.6.128,8.526.136,12.443a.707.707,0,0,0,1.414,0C1.542,8.526,1.338,4.6,1.445.682A.708.708,0,0,0,.03.682" transform="translate(16.593 19.575)"/><path class="b" d="M.03.682c-.106,3.916.1,7.844.1,11.761a.708.708,0,0,0,1.415,0C1.543,8.526,1.338,4.6,1.444.682A.707.707,0,0,0,.03.682" transform="translate(33.118 19.575)"/><path class="b" d="M7.151,17.578c-.035-.907-1.45-.912-1.414,0,.065,1.684-.242,5.321-2.923,3.793-2.1-1.2-1.312-5.034-1.341-6.977-.066-4.571-.033-9.139,0-13.711a.707.707,0,0,0-1.414,0C.042,3.259.008,5.833.011,8.408c0,2.077.024,4.154.052,6.232a30.976,30.976,0,0,0,.068,4.721c.386,2.254,2.185,4.213,4.642,3.584,2.353-.6,2.455-3.387,2.378-5.367" transform="translate(42.016 24.941)"/><path class="b" d="M.683,1.414A.707.707,0,0,0,.683,0a.707.707,0,0,0,0,1.414" transform="translate(24.975 15.038)"/><path class="b" d="M.683,1.414A.707.707,0,0,0,.683,0a.707.707,0,0,0,0,1.414" transform="translate(27.147 15.038)"/><path class="b" d="M.621,17.984A.609.609,0,0,1,0,17.352a.729.729,0,0,1,.679-.784c1.854-.129,2.751-.828,3-2.336a17.851,17.851,0,0,0,.013-4.165c-.032-.431-.065-.877-.087-1.307a.629.629,0,0,1,.162-.479.7.7,0,0,1,.51-.2.709.709,0,0,1,.743.681c.008.183.021.373.034.552l.025,0A.441.441,0,0,1,5.152,9.3,5.427,5.427,0,0,0,9.045,7.8a3.842,3.842,0,0,0,1.028-2.88A2.835,2.835,0,0,1,8.229,5.6,2.691,2.691,0,0,1,5.663,3.9,3.188,3.188,0,0,1,6.047,1.04,2.215,2.215,0,0,1,7.876,0a2.389,2.389,0,0,1,.994.23,4.556,4.556,0,0,1,2.364,3.042A6.779,6.779,0,0,1,11.172,7.2c-.835,2.384-3.618,3.482-6.007,3.513a11.185,11.185,0,0,1-.38,4.86C4.2,17.064,2.9,17.829.68,17.982ZM7.842,1.414c-.331,0-.614.251-.841.746a1.47,1.47,0,0,0,.017,1.25,1.264,1.264,0,0,0,.858.694,1.734,1.734,0,0,0,.388.046A1.684,1.684,0,0,0,9.65,3.312C9.233,2.437,8.51,1.414,7.842,1.414Z" transform="translate(18.871 18.461)"/><path class="b" d="M1.838,3.712a1.681,1.681,0,0,0,1.214-.63,1.413,1.413,0,0,0,.926.229A2.14,2.14,0,0,0,5.7.707.728.728,0,0,0,4.99,0a.711.711,0,0,0-.707.707c.034.285.12,1.178-.377,1.193-.294.008-.327-.582-.348-.789,0,0,0,0,0,0h0A.728.728,0,0,0,2.85.4a.772.772,0,0,0-.568.287.555.555,0,0,0-.138.4.092.092,0,0,0,0,.016.008.008,0,0,0,0,0c.034.289.117,1.175-.378,1.19-.3.009-.327-.591-.349-.794A.728.728,0,0,0,.71.8.712.712,0,0,0,0,1.507c.11,1.041.548,2.3,1.835,2.2" transform="translate(11.706 35.209)"/><path class="b" d="M1.064,2.805C2.024,2.281,3,1.783,3.981,1.3,4.8.9,4.082-.32,3.267.079,2.285.562,1.31,1.06.35,1.584c-.8.437-.086,1.658.714,1.221" transform="translate(27.215 33.316)"/><path class="b" d="M.683,4.266H4.706c.77,0,1-1.265.189-1.389a3.725,3.725,0,0,1-1.774-.635.723.723,0,0,1-.238-.32c.038.109-.049.071.017-.067.182-.383.619-.442,1.036-.441A.707.707,0,0,0,3.936,0C2.662,0,1.053.933,1.559,2.424a1.843,1.843,0,0,0,.214.428H.683a.707.707,0,0,0,0,1.414" transform="translate(31.21 13.586)"/><path class="b" d="M.683,4.266H4.707c.769,0,1-1.265.188-1.389a3.721,3.721,0,0,1-1.773-.635.723.723,0,0,1-.238-.32c.038.109-.05.071.016-.067.183-.383.619-.442,1.036-.441A.707.707,0,0,0,3.936,0C2.662,0,1.054.933,1.559,2.424a1.843,1.843,0,0,0,.214.428H.683a.707.707,0,0,0,0,1.414" transform="translate(14.684 13.586)"/></g></svg>