<svg xmlns="http://www.w3.org/2000/svg" width="408" height="32" viewBox="0 0 408 32">
  <g fill="none" fill-rule="evenodd">
    <path fill="#D30741" d="M329.339184,16.9809458 L333.394209,5.54237009 L323.29273,5.54237009 C319.688495,5.54237009 316.552832,6.57544345 313.883648,8.64264324 C311.213418,10.7066838 308.521224,13.4878731 307.287041,16.9809458 L329.339184,16.9809458 Z M339.359082,0 C346.268418,0.034751703 348.851837,0.0484417679 346.37824,0.0484417679 L335.115791,31.9505052 L324.083444,32 L327.388546,22.5264751 L305.285153,22.5264751 L301.982143,31.9505052 L291,32 L296.555918,16.301708 C298.925969,9.57356764 303.605408,4.84522987 312.081531,2.11774772 C316.417908,0.706617962 320.49176,0 324.295765,0 L329.300485,0 L339.359082,0 Z M377.820449,26.4499159 L408,26.4499159 L406.062568,32 L365,32 L376.062447,0.0495731567 L387.051255,0 L377.820449,26.4499159 Z M355.262449,0.0504682109 L366.345,0 L355.031301,31.9505832 L344,32 L351.47727,10.7875801 C353.165383,6.30432068 358.912704,5.16458025 358.912704,5.16458025 L353.459286,5.16458025 L355.262449,0.0504682109 Z M291.623393,10.8031983 C290.024184,15.3792899 286.224362,18.7602909 278.009719,20.9483071 L283.615842,32 L272.784311,31.9505117 L267.929158,22.4276924 L254.393929,22.4276924 L251.030255,31.9505117 L240,32 L251.192372,0 L262.315714,0 L256.351888,16.8849988 L268.539974,16.8849988 C269.875612,16.8849988 272.081454,16.6322925 273.685893,16.1279326 C276.586224,15.1876542 278.422857,13.6271923 279.190561,11.440229 C279.423801,10.8379454 279.54199,10.2830443 279.54199,9.77868448 C279.54199,8.36774045 278.806709,7.29268533 277.340332,6.55457208 C276.138571,5.8817413 273.928546,5.54690533 272.194413,5.54690533 L263.87727,5.54690533 L265.75051,0.00421177322 L276.749388,0.00421177322 C280.518878,0.00421177322 283.14727,0.541212859 286.117679,1.61837386 C290.121454,3.06406502 292.124388,5.25313415 292.124388,8.1792636 C292.124388,9.0205653 291.955995,9.89450824 291.623393,10.8031983 Z"/>
    <path fill="#008576" d="M26.903731,0 L72.1956522,0 L70.2494864,5.55182756 L53.1315758,5.55182756 L43.8421561,31.9504301 L32.7860562,32 L42.0765194,5.55182756 L24.9565217,5.55182756 L26.903731,0 Z M101.339184,16.9809458 L105.394209,5.54237009 L95.2937755,5.54237009 C91.6895408,5.54237009 88.5528316,6.57544345 85.883648,8.64264324 C83.2134184,10.7066838 80.5212245,13.4878731 79.2870408,16.9809458 L101.339184,16.9809458 Z M111.359082,0 C118.266327,0.034751703 120.851837,0.0484417679 118.37824,0.0484417679 L107.114745,31.9505052 L96.0855357,32 L99.3885459,22.5264751 L77.2851531,22.5264751 L73.9821429,31.9505052 L63,32 L68.5559184,16.301708 C70.9259694,9.57356764 75.6054082,4.84522987 84.0815306,2.11774772 C88.4179082,0.706617962 92.4896684,0 96.2947194,0 L101.300485,0 L111.359082,0 Z M138.238316,0 L128.929643,26.4507878 L159.361684,26.4507878 L157.41,32 L116,32 L127.155765,0.0495747907 L138.238316,0 Z M9.45928571,5.16458025 L11.262449,0.0504682109 L22.3439541,0 L11.0323469,31.9505832 L-6.21724894e-14,32 L7.47517857,10.7928372 C9.16119898,6.30432068 14.91375,5.16458025 14.91375,5.16458025 L9.45928571,5.16458025 Z M176.262449,0.0504682109 L187.345,0 L176.032347,31.9505832 L165,32 L172.475179,10.7928372 C174.162245,6.30432068 179.91375,5.16458025 179.91375,5.16458025 L174.459286,5.16458025 L176.262449,0.0504682109 Z M229.417015,0 L240.478648,0 L229.243393,31.9505117 L218.212092,32 L221.528699,22.527722 L199.285153,22.527722 L195.982143,31.9505117 L185,32 L190.556964,16.3048271 C192.923878,9.57757231 197.606454,4.84880392 206.081531,2.1227337 C210.418954,0.711789675 214.490714,0.00421177322 218.295765,0.00421177322 L223.298393,0.00421177322 L226.208138,0.00421177322 L224.272143,5.54690533 L217.294821,5.54690533 C213.689541,5.54690533 210.553878,6.57878977 207.88574,8.64571748 C205.213418,10.7105393 202.521224,13.4913626 201.289133,16.9829226 L223.469923,16.9829226 L229.417015,0 Z"/>
  </g>
</svg>
