<?xml version="1.0" encoding="utf-8"?>
<!-- Generator: Adobe Illustrator 16.0.0, SVG Export Plug-In . SVG Version: 6.00 Build 0)  -->
<!DOCTYPE svg PUBLIC "-//W3C//DTD SVG 1.1//EN" "http://www.w3.org/Graphics/SVG/1.1/DTD/svg11.dtd">
<svg version="1.1" id="Layer_1" xmlns="http://www.w3.org/2000/svg" xmlns:xlink="http://www.w3.org/1999/xlink" x="0px" y="0px"
	 width="150px" height="74.335px" viewBox="0 0 150 74.335" enable-background="new 0 0 150 74.335" xml:space="preserve">
<g>
	<g>
		<g>
			<g>
				<path fill="#404041" d="M-0.062,71.155c1.825-0.126,3.338-0.613,4.278-1.676c1.069-1.201,1.522-2.889,1.54-8.046L5.818,43.32
					l3.913,0.016L9.665,62.96c-0.016,4.18-0.691,6.894-2.61,8.839c-1.745,1.733-4.591,2.432-6.683,2.427L-0.062,71.155z
					 M10.199,37.288c-0.005,1.289-0.896,2.397-2.501,2.393c-1.422-0.006-2.353-1.12-2.349-2.411
					c0.006-1.336,0.989-2.445,2.457-2.439C9.274,34.835,10.204,35.951,10.199,37.288z"/>
				<path fill="#404041" d="M31.207,59.784c-0.006,1.869,0.078,3.692,0.296,5.163l-3.514-0.013l-0.304-2.714h-0.132
					c-1.21,1.68-3.528,3.191-6.599,3.182c-4.359-0.019-6.574-3.098-6.562-6.209c0.018-5.208,4.655-8.036,12.974-7.967l0.002-0.443
					c0.006-1.732-0.471-4.982-4.876-4.955c-2.045-0.007-4.14,0.566-5.654,1.583l-0.881-2.628c1.783-1.104,4.411-1.852,7.125-1.841
					c6.583,0.021,8.169,4.521,8.155,8.79L31.207,59.784z M27.448,53.944c-4.271-0.107-9.124,0.637-9.138,4.817
					c-0.009,2.583,1.678,3.743,3.631,3.748c2.851,0.011,4.683-1.767,5.31-3.585c0.136-0.444,0.184-0.89,0.184-1.245L27.448,53.944z"
					/>
				<path fill="#404041" d="M37.559,49.26c0.008-2.27-0.073-4.048-0.156-5.826l3.43,0.013l0.165,3.513h0.13
					c1.21-2.041,3.219-3.945,6.822-3.933c2.893,0.013,5.11,1.801,6.036,4.336h0.088c0.673-1.245,1.566-2.129,2.458-2.792
					c1.291-0.976,2.673-1.503,4.72-1.498c2.891,0.011,7.112,1.893,7.084,9.371l-0.043,12.632l-3.825-0.016l0.042-12.143
					c0.015-4.186-1.534-6.639-4.648-6.647c-2.27-0.008-3.966,1.633-4.685,3.494c-0.178,0.58-0.315,1.251-0.317,1.961l-0.047,13.302
					l-3.828-0.014l0.046-12.896c0.012-3.432-1.491-5.883-4.469-5.894c-2.404-0.008-4.235,1.943-4.865,3.899
					c-0.224,0.531-0.315,1.245-0.318,1.912l-0.044,12.945l-3.829-0.013L37.559,49.26z"/>
				<path fill="#404041" d="M89.753,59.986c-0.007,1.869,0.077,3.695,0.296,5.165l-3.515-0.013l-0.303-2.716h-0.133
					c-1.209,1.686-3.529,3.191-6.6,3.181c-4.359-0.016-6.571-3.094-6.561-6.208c0.019-5.205,4.655-8.033,12.976-7.962v-0.447
					c0.007-1.731-0.475-4.981-4.877-4.953c-2.045-0.005-4.141,0.562-5.653,1.583l-0.882-2.631c1.782-1.104,4.409-1.849,7.123-1.838
					c6.587,0.02,8.17,4.521,8.156,8.79L89.753,59.986z M85.992,54.149c-4.271-0.104-9.122,0.634-9.137,4.816
					c-0.011,2.58,1.679,3.746,3.635,3.751c2.846,0.011,4.678-1.77,5.305-3.587c0.137-0.444,0.181-0.89,0.183-1.245L85.992,54.149z"
					/>
				<path fill="#404041" d="M96.161,33.583l3.918,0.016l-0.11,31.589l-3.918-0.019L96.161,33.583z"/>
				<path fill="#404041" d="M126.077,54.331c-0.03,7.965-5.604,11.416-10.765,11.397c-5.785-0.02-10.307-4.306-10.281-11.114
					c0.025-7.162,4.799-11.37,10.715-11.353C121.93,43.285,126.097,47.793,126.077,54.331z M109.033,54.494
					c-0.017,4.715,2.639,8.281,6.468,8.294c3.735,0.016,6.552-3.486,6.568-8.343c0.012-3.644-1.796-8.232-6.421-8.248
					C111.064,46.179,109.048,50.447,109.033,54.494z"/>
				<path fill="#404041" d="M131.026,49.587c0.008-2.27-0.03-4.047-0.155-5.829l3.469,0.016l0.21,3.554l0.087,0.003
					c1.079-1.997,3.575-3.989,7.137-3.977c2.977,0.011,7.596,1.809,7.573,9.187L149.3,65.355l-3.916-0.013l0.044-12.413
					c0.012-3.468-1.267-6.366-4.956-6.38c-2.537-0.01-4.548,1.808-5.268,3.988c-0.179,0.486-0.268,1.156-0.268,1.823l-0.047,12.945
					l-3.917-0.013L131.026,49.587z"/>
			</g>
		</g>
	</g>
	<polygon fill="#7B0099" points="2.592,23.223 13.304,30.355 23.908,24.841 23.908,12.504 14.042,5.73 14.042,18.088 	"/>
	<polygon fill="#7B0099" points="47.761,11.363 47.761,-0.031 38.011,6.06 28.316,-0.031 28.316,11.236 38.011,17.196 	"/>
	<polygon fill="#7B0099" points="61.211,10.276 61.211,20.306 71.45,27.982 61.333,33.184 50.981,26.41 50.981,15.79 	"/>
</g>
</svg>
