<?xml version="1.0" encoding="utf-8"?>
<!-- Generator: Adobe Illustrator 23.1.0, SVG Export Plug-In . SVG Version: 6.00 Build 0)  -->
<svg version="1.1" id="Layer_1" xmlns="http://www.w3.org/2000/svg" xmlns:xlink="http://www.w3.org/1999/xlink" x="0px" y="0px"
	 viewBox="0 0 141 31" style="enable-background:new 0 0 141 31;" xml:space="preserve">
<style type="text/css">
	.st0{fill-rule:evenodd;clip-rule:evenodd;fill:#333333;}
</style>
<g>
	<path id="Shape_11_copy_4" class="st0" d="M63,6.9L63,6.9c5.2-0.1,9.5,4,9.7,9.2c-0.3,5.3-4.8,9.4-10.1,9.2c-5-0.2-8.9-4.2-9.2-9.2
		C53.5,10.9,57.8,6.8,63,6.9 M63,22.8L63,22.8c3.6-0.1,6.6-3.1,6.5-6.7c0,0,0,0,0,0c0.2-3.6-2.6-6.6-6.2-6.8
		c-3.6-0.2-6.6,2.6-6.8,6.2c0,0.2,0,0.4,0,0.6C56.4,19.7,59.3,22.7,63,22.8 M92.2,18.8c0-0.3-0.3-0.6-0.6-0.6c0,0,0,0,0,0h-2
		c-0.3,0-0.5,0.2-0.6,0.4c-0.9,2.6-3.4,4.3-6.2,4.2c-3.6-0.1-6.4-3.1-6.3-6.7c0,0,0,0,0,0c-0.1-3.6,2.6-6.6,6.2-6.8c0,0,0,0,0,0
		c2.5-0.1,4.8,1.3,5.9,3.6h0c0.1,0.2,0.3,0.3,0.5,0.3h2c0.3,0,0.6-0.3,0.6-0.6c0,0,0,0,0,0c0-0.1,0-0.2-0.1-0.3
		c-2.4-5.4-8.9-5.4-8.9-5.4c-5.1-0.1-9.4,4-9.5,9.2c0.1,5.1,4.3,9.2,9.5,9.2c4,0.1,7.7-2.3,9.2-6C92.2,19.1,92.2,18.9,92.2,18.8
		 M46.9,22.3c1.5-0.9,2.5-2.5,2.4-4.3V8.2c0-0.3,0.3-0.6,0.6-0.6h2c0.3,0,0.6,0.3,0.6,0.6c0,0,0,0,0,0l0,9.5c0.1,4-3,7.3-7,7.4
		c-0.1,0-0.2,0-0.3,0h-1.2C43,25.1,42,25,41,24.6c-2.6-0.8-4.4-3.3-4.4-6v-0.1c0-0.3,0.3-0.6,0.6-0.6h1.6c0.3,0,0.5,0.2,0.6,0.5
		c0,0,0,0,0,0.1v0.1c0,2.3,2.3,4.2,5,4.2C45.2,22.8,46.1,22.6,46.9,22.3 M109.9,23.5l-6.8-10l4.8-5c0.1-0.1,0.1-0.2,0.1-0.4
		c0-0.2-0.2-0.5-0.4-0.5h-2.4c-0.2,0-0.3,0.1-0.4,0.2l-7.9,8V8.2c0-0.3-0.3-0.6-0.6-0.6h-1c0,0-1.6-0.1-1.6,2.1v14.1
		c0,0.3,0.3,0.6,0.6,0.6c0,0,0,0,0,0h1c0,0,1.6,0.1,1.6-2.1v-2.5l4-4.1l5.7,8.4c0.1,0.2,0.3,0.3,0.5,0.3h2.5c0.2,0,0.4-0.2,0.4-0.5
		C110,23.7,110,23.6,109.9,23.5 M121.4,16.8c0.7,0,1.3-0.6,1.3-1.3c0-0.7-0.6-1.3-1.3-1.3h-7v-4.1h8c0.7,0,1.3-0.6,1.3-1.3
		c0-0.7-0.6-1.3-1.3-1.3h-10.1c-0.6,0-1.1,0.5-1.1,1.1c0,0,0,0,0,0v14.5c0,0.6,0.5,1.1,1.1,1.1h10.1c0.7,0,1.3-0.6,1.2-1.3
		c0-0.7-0.6-1.2-1.2-1.2h-8v-4.9L121.4,16.8L121.4,16.8z M130.6,23c0,0.7,0.5,1.3,1.1,1.3h1c0.7-0.1,1.2-0.6,1.1-1.3v-4.7l6.5-9.5
		c0.1-0.2,0.2-0.4,0.2-0.6c0-0.3-0.3-0.6-0.6-0.6c0,0,0,0,0,0h-2.2c-0.4,0-0.8,0.3-1,0.6l-4.7,6.9L128,8.3c-0.2-0.4-0.6-0.6-1-0.6
		H125c-0.3,0-0.6,0.3-0.6,0.6c0,0.2,0.1,0.4,0.2,0.6l6,9.6L130.6,23z M136,24.4V23h-0.5v-0.3h1.4V23h-0.5v1.4L136,24.4L136,24.4z
		 M137.1,24.4v-1.7h0.5l0.3,1.2l0.3-1.2h0.5v1.7h-0.3v-1.4l-0.3,1.4h-0.3l-0.3-1.4v1.4L137.1,24.4L137.1,24.4z"/>
	<path id="Color_Fill_527" class="st0" d="M31,23.6c0,0-0.6-0.4-0.8-0.5c-2.7-1.4-6-0.3-7.3,2.4c0,0,0,0,0,0
		c-0.7,1.2-0.8,2.5-0.4,3.8c-1.8,0.1-3.6-0.3-5.1-1.2c-1.9-0.9-3.4-2.4-4.3-4.3c-0.5-1.2-0.8-2.5-0.7-3.8c1,1.5,2.7,2.4,4.6,2.4
		c5.2,0,8.7-4.1,8.7-4.1c1.6-2.1,2.4-4.6,2.3-7.2c0.1-2.4-0.6-4.8-2-6.8l0,0c-1-1.4-2.3-2.5-3.8-3.2C20.5,0.4,18.8,0,17.1,0h-0.3
		c-0.5,0-1,0.5-1,1.1c0,0.3-0.1,0.7-0.1,1c0,3.1,2.5,5.5,5.6,5.5c0,0,0,0,0,0C22.7,7.6,24,7.1,25,6.1c0.9,1.6,1.4,3.4,1.3,5.2
		c0.1,2.1-0.6,4.2-1.9,6c-0.7,0.9-1.7,1.7-2.7,2.2c1.1-2.1,0.7-4.6-0.9-6.4c-1.8-2.6-4.4-4.4-7.4-5.1c-2.5-0.3-5.1,0.2-7.2,1.6
		c-2.1,1.2-3.8,2.9-4.8,5.1l0,0c-0.7,1.5-1,3.2-0.9,4.9C0.6,21.4,1,23,1.9,24.5L2,24.8c0.3,0.5,0.9,0.6,1.4,0.3
		C3.7,25,4,24.8,4.3,24.7c2.6-1.6,3.5-5,1.9-7.6c-0.6-1.2-1.7-2.1-3-2.4c0.9-1.6,2.2-2.9,3.8-3.7c1.8-1.1,3.9-1.6,6-1.4
		c1.4,0.2,2.7,0.8,3.8,1.7l0.2,0.1c0,0-0.1,0-0.1,0c-2.7,0-5,2-5.4,4.6c-0.9,2.7-0.9,5.7,0,8.4c1.1,2.3,2.9,4.2,5.2,5.3
		c2.1,1.1,4.5,1.6,6.8,1.3h0c1.6-0.3,3.2-0.9,4.6-1.9c1.4-1,2.5-2.3,3.3-3.7l0.1-0.3C31.7,24.5,31.5,23.9,31,23.6
		C31,23.7,31,23.7,31,23.6 M16.8,12.9c2.2,0,4.1,1.8,4.1,4s-1.8,4.1-4,4.1s-4.1-1.8-4.1-4c0,0,0,0,0,0
		C12.8,14.7,14.6,12.9,16.8,12.9C16.8,12.9,16.8,12.9,16.8,12.9 M21.3,6c-4.3,0-4.1-4.4-4.1-4.4C19,1.6,20.7,2,22.1,3
		c0.8,0.5,1.5,1.1,2.1,1.8C23.5,5.6,22.4,6.1,21.3,6 M24.1,26.2c2-3.7,5.7-1.4,5.7-1.4c-0.8,1.5-2,2.7-3.5,3.6
		c-0.8,0.5-1.7,0.8-2.6,1C23.4,28.3,23.5,27.2,24.1,26.2 M4.9,17.8c2.1,3.7-1.8,5.7-1.8,5.7c-0.9-1.5-1.3-3.2-1.2-4.9
		c0-0.9,0.2-1.9,0.5-2.7C3.5,16.1,4.4,16.9,4.9,17.8"/>
</g>
</svg>
