<svg xmlns="http://www.w3.org/2000/svg" fill="none" viewBox="0 0 164 32"><path fill="#121212" fill-rule="evenodd" d="M55.5829 6.2968l-1.5739 8.9696c-.0375.2262-.0751.49-.0751.7159 0 1.357 1.0869 2.3367 2.5485 2.3367 1.349 0 2.5857-.829 2.8481-2.4119l1.6864-9.6104h6.4459l-2.9982 17.0726C63.4903 28.9851 59.4431 32 54.4212 32c-3.2979 0-6.9704-1.319-9.4438-4.2211l3.7474-4.3341.7358.6206c1.5697 1.2815 3.0119 2.1308 4.9606 2.1308 1.8738 0 3.2228-.7918 3.6353-3.0154l.1123-.7159c-1.1992.8292-2.6607 1.3192-4.3472 1.3192-3.935 0-6.4834-2.7514-6.4834-6.2941 0-.6029.0751-1.3944.1874-1.9974l1.6116-9.1959h6.4457zm-33.0004 0c5.2839 0 8.4694 3.7688 8.4694 8.1029 0 1.3944-.3371 2.8266-.7494 3.8067H18.4976c.5996 1.4699 1.9861 2.1104 4.0098 2.1104 1.7988 0 3.4104-.5276 5.0218-1.4323l2.0612 4.2967c-2.3611 1.6581-4.8718 2.4874-7.6451 2.4874-5.9586 0-9.931-3.8442-9.931-9.083 0-5.7285 4.7219-10.2889 10.5682-10.2889zM9.6845 0l-1.215 6.749-.937 5.3518-.9367 5.1634-.064.5359a3.059 3.059 0 00-.0111.2556c0 1.6582 1.3493 2.0727 3.7101 2.0727h1.4991l-.9368 5.3516c-.7497.1133-1.4243.1886-2.3986.1886C4.8343 25.6686 0 24.6508 0 19.3369c0-.6786.0748-1.319.1874-1.9973l.9367-5.2388L3.239 0h6.4456zm33.3603 0l-1.1326 6.291h4.9384l-.8857 5.3298h-4.9881l-1.0208 5.6434c-.0376.3012-.0751.5275-.0751.7915 0 1.6582 1.3493 2.0727 3.7101 2.0727h1.4991l-.9368 5.3517c-.7496.1132-1.4243.1885-2.3986.1885-3.5603 0-8.3944-1.0178-8.3944-6.3317 0-.6785.0747-1.319.1873-1.9973l1.0208-5.7188h-2.8923l.8857-5.3298h2.9396L36.5992 0h6.4456zM22.2941 11.3092c-1.6117 0-2.9982 1.0176-3.5978 2.7512h6.5207c-.0376-1.8089-1.3866-2.7512-2.9229-2.7512z" clip-rule="evenodd"/><path fill="#FCD31B" fill-rule="evenodd" d="M138.767 6.2967c4.91 0 8.02 4.0635 8.02 8.6911 0 4.5151-2.998 10.6855-10.044 10.6855-2.473 0-4.197-.7528-5.283-2.0695l-1.424 8.3524h-6.447l4.423-25.208h5.883l-.299 1.7685c1.236-1.4675 3.035-2.22 5.171-2.22zm-23.851.033c5.547 0 9.781 4.0259 9.781 9.2935 0 5.7561-5.021 10.0455-10.793 10.0455-5.583 0-9.706-4.0258-9.706-9.2556 0-5.7566 4.985-10.0833 10.718-10.0833zm41.14 0c3.148 0 5.659 1.129 7.383 3.2358l-3.598 3.6118c-1.161-1.2416-2.548-1.8435-3.635-1.8435-.749 0-1.087.301-1.087.7525 0 .4892.375.7148 1.012.9781l1.687.6396c3.035 1.2039 5.059 2.8217 5.059 5.5308 0 2.709-1.986 6.4339-7.645 6.4339-3.635 0-6.783-1.5426-8.432-4.2516l3.785-3.4992c1.386 1.6179 2.773 2.7467 4.684 2.7467.825 0 1.574-.2259 1.574-.8279 0-.4514-.375-.7146-1.012-.9782l-1.761-.6771c-2.998-1.2039-5.022-2.8218-5.022-5.8695 0-3.7248 2.961-5.9821 7.008-5.9821zM93.5816.1156L92.131 8.211c1.1244-.8655 2.5484-1.4299 4.385-1.4299 3.86 0 6.483 2.5583 6.483 6.3585 0 .5419-.048 1.0836-.144 1.7022l-1.88 10.8268h-6.4454l1.724-10.0458c.075-.3013.1123-.6397.1123-.9407 0-1.4671-1.0494-2.3703-2.5482-2.3703-1.3864 0-2.5484.7902-2.8483 2.5586l-1.8735 10.7982h-6.4461L87.1358.1155h6.4458zM75.3895 6.3298c3.1478 0 5.6589 1.1288 7.3826 3.2357l-3.5978 3.6118c-1.1616-1.2416-2.5481-1.8435-3.635-1.8435-.7494 0-1.0868.301-1.0868.7525 0 .4892.3747.7148 1.0118.9781l1.6864.6396c3.0357 1.2039 5.0594 2.8217 5.0594 5.5308 0 2.709-1.9864 6.4339-7.6451 6.4339-3.6352 0-6.7832-1.5426-8.4321-4.2516l3.7851-3.4992c1.3865 1.6179 2.7732 2.7467 4.6846 2.7467.8242 0 1.5738-.2259 1.5738-.8279 0-.4514-.3747-.7146-1.0118-.9782l-1.7614-.6771c-2.998-1.2039-5.0219-2.8218-5.0219-5.8695 0-3.7248 2.9607-5.9821 7.0082-5.9821zm61.3535 5.7611c-2.21 0-3.934 1.6931-3.972 4.0261-.037 2.2573 1.462 3.7618 3.485 3.7618 2.211 0 3.898-1.8432 3.935-4.1759.038-2.1822-1.424-3.612-3.448-3.612zm-22.089.0331c-2.174 0-3.822 1.8062-3.86 4.1386-.038 2.1824 1.387 3.612 3.373 3.612 2.174 0 3.898-1.6931 3.935-4.0258.037-2.2576-1.462-3.7248-3.448-3.7248z" clip-rule="evenodd"/></svg>
