<svg xmlns="http://www.w3.org/2000/svg" viewBox="0 0 629.09 131.74"><title>Asset 29</title><g id="Layer_2" data-name="Layer 2"><g id="Layer_1-2" data-name="Layer 1"><path d="M124.88,128.16H96.31V66.27c0-22.9-13.29-37.7-33.87-37.7s-33.87,14.8-33.87,37.7v61.89H0V66.27C0,27.25,25.68,0,62.44,0s62.44,27.25,62.44,66.27Z"/><path d="M209.49.18A65.78,65.78,0,1,1,143.71,66,65.78,65.78,0,0,1,209.49.18m0,27.31A38.47,38.47,0,1,0,248,66a38.51,38.51,0,0,0-38.47-38.47"/><path d="M553,28.59h76.09V2.33H553C496.19,2.33,496.19,46,496.19,65s0,64.07,56.82,64.07h76.09V102.8H553c-21.37,0-28.21-7.24-30-24.75h106.1V52.64H522.94c1.68-18,8.42-24.06,30.06-24.06"/><rect x="296.86" y="2.96" width="28.57" height="125.63"/><path d="M352.28,42.07c0-26.33,20-41.34,67-41.34,22.44,0,46.16,3.33,55.68,7.06v27c-13.25-4.17-38-7.82-62.53-7.82-17.71,0-31.23,3.29-31.23,14.13,0,9.92,11.35,11.42,32.87,12.74,46.53,2.82,64.53,11.76,64.53,36.59,0,27.49-25.15,40-67,40-23,0-44.93-2.79-57.8-6.89V97.37a259.59,259.59,0,0,0,58.15,7.11c24.5,0,37.54-3.38,37.54-13.58,0-8.28-7.09-10.11-30.9-11.66C376,76.48,352.28,65.77,352.28,42.07"/></g></g></svg>