<?xml version="1.0" encoding="utf-8"?>
<!-- Generator: Adobe Illustrator 23.1.0, SVG Export Plug-In . SVG Version: 6.00 Build 0)  -->
<svg version="1.1" id="Layer_1" xmlns="http://www.w3.org/2000/svg" xmlns:xlink="http://www.w3.org/1999/xlink" x="0px" y="0px"
	 viewBox="0 0 219 62.9" style="enable-background:new 0 0 219 62.9;" xml:space="preserve">
<style type="text/css">
	.st0{fill:#00A79B;}
	.st1{fill:#FBB713;}
</style>
<path class="st0" d="M31.5,29.6c-1.4,7.3-3.2,11-6.2,13.8c-2.7,2.6-6.2,4-10.6,4C8.8,47.4,2.9,43.9,2.9,36c0-2.1,0.4-4.7,0.7-6.3
	C5,22.3,6.8,18.9,9.8,15.9c2.6-2.6,6.2-4,10.6-4c5.8,0,11.7,3.5,11.7,11.5C32.2,25.5,31.8,28.1,31.5,29.6 M19.6,19.3
	c-1.7,0-3.1,0.6-4.3,1.7c-1.7,1.6-2.7,4.3-3.5,8.6c-0.6,3-0.7,4.6-0.7,5.4c0,3.4,1.8,5,4.4,5c1.8,0,3.2-0.7,4.3-1.7
	c1.7-1.6,2.7-4.3,3.5-8.6c0.6-2.9,0.7-4.6,0.7-5.3C24,20.9,22.2,19.3,19.6,19.3z"/>
<path class="st0" d="M120.5,19.7h-5.7l-3.4,17c-0.1,0.3-0.1,0.6-0.1,0.8V38c0,1.4,0.9,2.1,2.7,2.1l2.5,0l-1.4,6.9h-3.8
	c-4.8,0-8.4-2.7-8.4-7.5c0-1.3,0.1-2.1,0.3-2.9l3.4-17l1.3-6.2L109.9,3h8.3l-2.1,10.4h5.7L120.5,19.7z"/>
<polygon class="st0" points="89.9,47 98.1,47 105.1,11.8 96.9,11.8 "/>
<polygon class="st0" points="98.6,3 97.3,9.3 105.6,9.3 106.9,3 "/>
<path class="st0" d="M81.2,26.2l-4.5-0.7c-2.1-0.3-3.2-1.2-3.2-2.6c0-0.5,0.1-1,0.3-1.5h0c0,0,0-0.1,0.1-0.3
	c0.2-0.3,0.4-0.6,0.7-0.9c0.3-0.3,0.7-0.7,1.3-1l0,0c0,0,0.3-0.2,0.8-0.4c0.3-0.1,0.7-0.2,1.1-0.3h0c0.1,0,0.2,0,0.2,0
	c2.5-0.5,7.1-0.4,13.4,3.9l1.2-6.3c-2.1-1.7-4.3-2.8-6.4-3.5c-0.2-0.1-0.5-0.1-0.7-0.2c0,0,0,0,0,0c-0.3-0.1-0.6-0.1-0.9-0.2
	c0,0,0,0,0,0c-0.1,0-0.1,0-0.2,0c-1.4-0.3-2.8-0.4-4-0.3h-0.1c-0.1,0-0.1,0-0.2,0c-0.1,0-0.2,0-0.4,0c-3.3,0.1-6.1,0.7-8.3,2
	c-0.2,0.1-0.3,0.2-0.3,0.2l0,0c-0.9,0.5-1.7,1.1-2.4,1.8c-2.3,2.3-3.5,5.5-3.5,8.7c0,3.2,1.9,6.8,8.3,7.8l4.5,0.7
	c2.1,0.3,3.3,1,3.3,2.9c0,2.1-2.3,4.3-7.1,4.3c-0.3,0-0.6,0-0.8,0c-0.2,0-0.3,0-0.5,0c-4-0.3-6.5-1.8-7.9-3
	c-0.1-0.1-0.1-0.1-0.2-0.2c0,0,0,0,0,0c-0.3-0.3-0.6-0.6-0.8-0.8l-1.6,7.9c2.8,2.1,6.4,3.3,11.2,3.3c4.5,0,9.2-1.1,12-3.8
	c2.3-2.2,3.7-4.9,3.7-8.4C89.6,30.4,87.4,27.2,81.2,26.2"/>
<path class="st0" d="M62.4,23.4c0-8-5.9-11.5-11.7-11.5c-4.5,0-8,1.4-10.6,4c-3,3-4.8,6.4-6.2,13.7c-0.1,0.3-0.1,0.6-0.2,0.9
	L30.4,47h8.2l3.6-17.8l0,0c0.8-4,1.8-6.6,3.4-8.1c1.1-1.1,2.6-1.7,4.3-1.7c2.6,0,4.4,1.6,4.4,5c0,0.7-0.1,2.4-0.7,5.2l0,0L50,47h8.3
	l3.2-15.9l0,0c0.1-0.5,0.2-0.9,0.3-1.4C62,28.1,62.4,25.5,62.4,23.4"/>
<path class="st0" d="M136.1,11.9c-12,0-17.6,11.7-17.6,23.3c0,9.1,6.9,12.2,12.8,12.2c4.1,0,7.9-1.1,11-3.2l-5-5
	c-1.5,0.8-3.1,1.2-5.1,1.2c-4,0-5.9-2.4-5.9-5.8c0-0.8,0.1-1.7,0.3-2.5h20.8c0.6-2.6,1.1-5.5,1.1-7.8
	C148.4,16.8,143.4,11.9,136.1,11.9 M140.3,26.7h-12.7c1.5-5.7,4.5-7.9,8-7.9c2.9,0,4.9,1.9,4.9,5.6
	C140.5,25.1,140.5,25.9,140.3,26.7z"/>
<path class="st0" d="M178.8,23.4c0-8-5.9-11.5-11.7-11.5c-4.5,0-8.1,1.4-10.6,4c-3,3-4.8,6.4-6.2,13.7c-0.3,1.6-0.7,4.2-0.7,6.3
	c0,8,5.9,11.4,11.8,11.4c1.9,0,3.6-0.3,5.1-0.7l-0.3,1.4c-1.1,3.6-3.4,6-7,6.5c-2.7,0.4-6.6-0.1-11.3-4.8l-1.4,7.1
	c0.4,0.5,1,1,1.5,1.5c0.1,0.1,0.2,0.2,0.3,0.3c0,0,0,0,0,0c1.8,1.4,3.8,2.3,6.3,2.6c0.1,0,0.2,0,0.4,0.1c0.2,0,0.3,0,0.4,0.1
	c0.8,0.1,1.6,0.1,2.6,0.1h0h0c0.3,0,0.7,0,1,0c0.2,0,0.4,0,0.7,0c0.1,0,0.1,0,0.2,0v0c7.1-0.7,13-5,14.7-14.3l2.8-14
	c0.3-1.1,0.5-2.2,0.8-3.5C178.4,28.1,178.8,25.5,178.8,23.4 M162.1,40c-2.6,0-4.4-1.6-4.4-5c0-0.8,0.1-2.4,0.7-5.4
	c0.9-4.3,1.9-7,3.5-8.6c1.1-1.1,2.6-1.7,4.3-1.7c2.6,0,4.4,1.6,4.4,5c0,0.7-0.1,2.4-0.7,5.3c-0.8,4.3-1.9,7-3.5,8.6
	C165.3,39.4,163.9,40,162.1,40z"/>
<path class="st1" d="M208.4,29.7c-1.4,7.3-3.2,11-6.2,13.8c-2.7,2.6-6.2,4-10.7,4c-5.9,0-11.8-3.5-11.8-11.5c0-2.1,0.4-4.7,0.7-6.3
	c1.4-7.3,3.2-10.7,6.2-13.7c2.6-2.6,6.2-4,10.7-4c5.8,0,11.7,3.5,11.7,11.5C209.1,25.6,208.6,28.2,208.4,29.7 M196.5,19.4
	c-1.7,0-3.1,0.6-4.3,1.7c-1.7,1.6-2.7,4.3-3.5,8.6c-0.6,3-0.7,4.6-0.7,5.4c0,3.4,1.8,5,4.4,5c1.8,0,3.2-0.7,4.3-1.7
	c1.7-1.6,2.7-4.3,3.5-8.7c0.6-2.9,0.7-4.6,0.7-5.3C200.9,21,199.1,19.4,196.5,19.4z"/>
<path class="st0" d="M203.1,10.1c-0.2,0.8-1,1.3-1.9,1.1c-0.8-0.2-1.3-1-1.1-1.8l1-3.7c0.2-0.8,1-1.3,1.8-1.1c0.8,0.2,1.3,1,1.1,1.8
	L203.1,10.1z"/>
<path class="st0" d="M208.9,14.4c-0.6,0.6-1.5,0.6-2.1,0c-0.6-0.6-0.6-1.5,0-2.1l2.7-2.7c0.6-0.6,1.5-0.6,2.1,0
	c0.6,0.6,0.6,1.5,0,2.1L208.9,14.4z"/>
<path class="st0" d="M211.8,21.1c-0.8,0.2-1.6-0.3-1.8-1.1c-0.2-0.8,0.3-1.6,1.1-1.9l3.7-1c0.8-0.2,1.6,0.3,1.9,1.1
	c0.2,0.8-0.3,1.6-1.1,1.8L211.8,21.1z"/>
</svg>
