<?xml version="1.0" encoding="UTF-8"?>
<svg width="160px" height="35px" viewBox="0 0 160 35" version="1.1" xmlns="http://www.w3.org/2000/svg" xmlns:xlink="http://www.w3.org/1999/xlink">
    <!-- Generator: Sketch 50.2 (55047) - http://www.bohemiancoding.com/sketch -->
    <title>logo-w</title>
    <desc>Created with Sketch.</desc>
    <defs>
        <rect id="path-1" x="0" y="0" width="79.603573" height="35"></rect>
        <radialGradient cx="88.3143838%" cy="50.532078%" fx="88.3143838%" fy="50.532078%" r="19.9489259%" gradientTransform="translate(0.883144,0.505321),scale(1.000000,0.667204),rotate(-78.854443),translate(-0.883144,-0.505321)" id="radialGradient-3">
            <stop stop-color="#000000" offset="0%"></stop>
            <stop stop-color="#000000" stop-opacity="0" offset="100%"></stop>
        </radialGradient>
        <linearGradient x1="9.9082644%" y1="0%" x2="122.914892%" y2="124.928985%" id="linearGradient-4">
            <stop stop-color="#6626D4" offset="0%"></stop>
            <stop stop-color="#883BD6" offset="31%"></stop>
            <stop stop-color="#B14EAF" offset="67%"></stop>
            <stop stop-color="#E14A68" offset="100%"></stop>
        </linearGradient>
    </defs>
    <g id="Page-1" stroke="none" stroke-width="1" fill="none" fill-rule="evenodd">
        <g id="logo-w">
            <g id="Group-7">
                <path d="M71.2612198,10.3506685 C72.4687803,11.1879643 73.7878991,12.8682941 73.7878991,14.6666685 L69.7385647,14.6666685 C69.59163,13.9346289 69.2490576,13.2188205 68.7105169,12.8204205 C68.1721418,12.4221845 67.5600517,12.2226566 66.8747419,12.2226566 C66.2220108,12.2226566 65.6916979,12.3815247 65.2836376,12.6986053 C64.8757428,13.0153578 64.671713,13.409987 64.671713,13.881181 C64.671713,14.5966615 65.1123514,15.0519524 65.9936288,15.2472175 L69.3956624,16.0030299 C72.3981927,16.6696531 73.8992932,18.2550555 73.8992932,20.7590733 C73.8992932,22.4336649 73.2547893,23.7342851 71.9657808,24.6612619 C70.676608,25.5877469 69.0695436,26.0513992 67.1440941,26.0513992 C65.2347695,26.0513992 63.6153647,25.6162742 62.2853861,24.7466802 C60.9555719,23.8765943 60.0716618,22.2195454 60.0716618,20.4211711 L64.1333373,20.4211711 C64.0421821,21.9855878 65.6018585,22.7100856 67.364249,22.7100856 C68.1147168,22.7100856 68.7064037,22.5556441 69.1388155,22.2465973 C69.5712268,21.9377143 69.7872684,21.5311168 69.7872684,21.0271326 C69.7872684,20.6367662 69.6771907,20.3280472 69.4568715,20.1004837 C69.2367166,19.8729202 68.840833,19.7022476 68.2698785,19.5884659 L64.8429992,18.8567543 C61.9061205,18.1901311 60.4374345,16.6127622 60.4374345,14.1253035 C60.4374345,12.5479346 61.0329061,11.2961717 62.2241771,10.3693589 C63.4152839,9.44270998 64.981871,8.97905759 66.9237749,8.97905759 C68.7185798,8.97905759 70.0538236,9.51337266 71.2612198,10.3506685 Z M57.9639015,25.6854614 L45.1871884,25.6854614 L45.1871884,9.34515936 L57.890352,9.34515936 L57.890352,12.8082882 L49.2256638,12.8082882 L49.2256638,15.8812146 L57.1805255,15.8812146 L57.1805255,19.1494062 L49.2256638,19.1494062 L49.2256638,22.2223325 L57.9639015,22.2223325 L57.9639015,25.6854614 Z M42.3459079,25.6854614 L38.429686,25.6854614 L38.429686,17.539739 L34.1463748,25.6854614 L31.649806,25.6854614 L27.3419783,17.4908817 L27.3419783,25.6854614 L23.4257564,25.6854614 L23.4257564,9.34515936 L27.3908467,9.34515936 L32.8980081,19.4661588 L38.4051695,9.34515936 L42.3459079,9.34515936 L42.3459079,25.6854614 Z M16.5473169,25.6854614 L20.5857921,25.6854614 L20.5857921,9.34515936 L16.5473169,9.34515936 L16.5473169,25.6854614 Z M9.32548179,12.8571455 L9.32548179,25.6854614 L5.31135849,25.6854614 L5.31135849,12.8571455 L0,12.8571455 L0,9.34515936 L14.6370048,9.34515936 L14.6370048,12.8571455 L9.32548179,12.8571455 Z" id="Fill-2" fill="#FFFFFF" fill-rule="nonzero"></path>
                <g id="Asset-1" opacity="0.513392857">
                    <g id="Shape">
                        <g id="Clipped">
                            <mask id="mask-2" fill="white">
                                <use xlink:href="#path-1"></use>
                            </mask>
                            <g id="path-2"></g>
                            <polygon id="Shape" fill="url(#radialGradient-3)" fill-rule="nonzero" mask="url(#mask-2)" points="67.7411867 68.054678 86.3450421 -28.4381589 21.9645881 -28.4381589 21.9645881 68.054678"></polygon>
                        </g>
                    </g>
                </g>
            </g>
            <g id="Group-3" transform="translate(71.038394, 0.000000)" fill="url(#linearGradient-4)" fill-rule="nonzero">
                <polygon id="Fill-1" points="6.74520721 0 0 34.9870816 81.8068774 34.9870816 88.2299534 0"></polygon>
            </g>
            <g id="Group-21" transform="translate(77.024433, 9.101222)" fill="#FFFFFF" fill-rule="nonzero">
                <path d="M9.76343367,1.37831842 C10.976273,1.37831842 11.8971773,1.71911136 12.5014148,2.39128216 C13.1014494,3.05992228 13.3035084,3.94460529 13.1011261,5.02078468 C12.8979355,6.10621105 12.3548008,7.00535298 11.4885331,7.69282329 C10.6191942,8.38180672 9.56008141,8.73117415 8.34045297,8.73117415 L2.96519695,8.73117415 L4.34598776,1.37831842 L9.76343367,1.37831842 Z M9.97648472,0.015651029 L3.16838755,0.015651029 L0.0455243365,16.6497765 L0.0199840711,16.7849504 L1.45314858,16.7849504 L2.709471,10.0938416 L8.12691693,10.0938416 C9.7579377,10.0938416 11.1765539,9.62510414 12.3434854,8.70040695 C13.5123567,7.77402848 14.2470434,6.55057007 14.5262082,5.06416139 C14.8040799,3.58498215 14.5236219,2.35967432 13.692755,1.42236763 C12.8654444,0.488927859 11.6151029,0.015651029 9.97648472,0.015651029 Z" id="Fill-11"></path>
                <path d="M27.0822715,6.93864024 C26.3016769,7.53834844 25.3503828,7.84232161 24.2552227,7.84232161 L18.3583311,7.84232161 L19.5719786,1.37835205 L25.5115451,1.37835205 C26.5995928,1.37835205 27.4299747,1.67425514 27.9803836,2.257655 C28.5330556,2.84357677 28.7128073,3.60182845 28.5299842,4.57612303 C28.3471612,5.54688694 27.8604413,6.34179024 27.0822715,6.93864024 M25.7250812,0.0155165276 L18.395025,0.0155165276 L15.2720001,16.6498101 L15.2464599,16.784984 L16.6793011,16.784984 L18.1069696,9.18027436 L21.450158,9.18027436 L26.5415614,16.7365634 L26.5742142,16.784984 L28.4085871,16.784984 L23.2370067,9.18027436 L24.0468594,9.18027436 C25.5519569,9.18027436 26.8567736,8.76180685 27.9262318,7.93596823 C28.9987613,7.10743955 29.6733152,5.99158222 29.9303344,4.61966786 C30.1899399,3.23766589 29.9303344,2.1118891 29.1591153,1.27276844 C28.3920991,0.438691583 27.2366446,0.0155165276 25.7250812,0.0155165276" id="Fill-13"></path>
                <polygon id="Fill-15" points="30.6557102 16.6497765 30.63017 16.7849504 32.0628495 16.7849504 35.1858744 0.150824944 35.2115763 0.015651029 33.7785734 0.015651029"></polygon>
                <path d="M54.1029347,0.0155669656 L41.1003533,0.0155669656 C39.9820776,0.0155669656 38.8948382,0.960775612 38.6769377,2.12269965 L35.9494637,16.6496924 L35.9239234,16.7850344 L37.3094019,16.7850344 L39.9579921,2.67600482 C40.0826222,2.01442602 40.700438,1.47625226 41.33555,1.47625226 L46.6249713,1.47625226 L43.7764235,16.6496924 L43.7508832,16.7850344 L45.1837244,16.7850344 L48.0581358,1.47625226 L53.4041336,1.47625226 C53.6980083,1.47625226 53.9524411,1.59276411 54.1203926,1.80460382 C54.2930319,2.02283235 54.3555894,2.31671794 54.2964265,2.63245999 L51.6648092,16.6496924 L51.639269,16.7850344 L53.0242626,16.7850344 L55.7688712,2.16624448 C55.8778215,1.58687967 55.7594957,1.04282147 55.4360396,0.633937188 C55.1201809,0.235140515 54.6467161,0.0155669656 54.1029347,0.0155669656" id="Fill-17"></path>
                <path d="M62.3961981,1.37831842 L71.3963937,1.37831842 L71.6521197,0.015651029 L62.0602952,0.015651029 C60.8870597,0.015651029 59.8719149,0.885034506 59.6469019,2.08276955 L57.3915995,14.0929047 C57.2668078,14.757846 57.4329812,15.4392638 57.8471215,15.962138 C58.2614234,16.4851803 58.8726116,16.7849504 59.5237267,16.7849504 L68.5033933,16.7849504 L68.7591193,15.422283 L59.8888879,15.422283 C59.5646235,15.422283 59.2600801,15.2728182 59.0536565,15.0123899 C58.8473946,14.7517935 58.7647929,14.4125137 58.8270271,14.0811358 L59.7752498,9.03228917 L69.2468086,9.03228917 L69.4981702,7.69416832 L60.026288,7.69416832 L60.9851795,2.5869817 C61.1162756,1.88673374 61.7095207,1.37831842 62.3961981,1.37831842" id="Fill-19"></path>
            </g>
        </g>
    </g>
</svg>