<?xml version="1.0" encoding="UTF-8"?>
<!DOCTYPE svg PUBLIC "-//W3C//DTD SVG 1.1//EN" "http://www.w3.org/Graphics/SVG/1.1/DTD/svg11.dtd">
<!-- Creator: CorelDRAW X7 -->
<svg xmlns="http://www.w3.org/2000/svg" xml:space="preserve" width="1273px" height="393px" version="1.1" style="shape-rendering:geometricPrecision; text-rendering:geometricPrecision; image-rendering:optimizeQuality; fill-rule:evenodd; clip-rule:evenodd"
viewBox="0 0 1327 409"
 xmlns:xlink="http://www.w3.org/1999/xlink">
 <defs>
  <style type="text/css">
   <![CDATA[
    .fil1 {fill:#E95125}
    .fil2 {fill:white}
    .fil3 {fill:#757475;fill-rule:nonzero}
    .fil0 {fill:#E95125;fill-rule:nonzero}
   ]]>
  </style>
 </defs>
 <g id="图层_x0020_1">
  <metadata id="CorelCorpID_0Corel-Layer"/>
  <path class="fil0" d="M306 246c-9,-44 -19,-88 -29,-133 -1,-5 -7,-12 -11,-13 -15,-1 -31,0 -48,0 2,7 3,13 5,19 14,49 28,97 42,146 13,45 13,45 60,45 10,0 15,-3 18,-13 18,-62 37,-123 55,-185 1,-3 1,-7 2,-12 -12,0 -23,1 -33,-1 -17,-2 -23,5 -26,21 -9,44 -19,88 -30,137 -3,-7 -4,-9 -5,-11z"/>
  <g id="_986122256">
   <g>
    <path class="fil0" d="M949 100c-19,-1 -37,-1 -56,-3 -10,-1 -14,4 -16,13 -6,23 -13,47 -19,70 -3,12 -6,23 -9,38 13,-5 22,-9 32,-11 13,-3 19,-10 21,-23 2,-14 6,-29 8,-43 2,0 3,0 4,0 4,16 8,33 12,50 15,-5 29,-9 44,-14 -7,-27 -14,-52 -21,-77z"/>
    <path class="fil0" d="M1010 176c-58,20 -117,40 -179,62 21,11 38,20 55,28 4,2 11,2 14,-1 38,-28 75,-57 112,-86 -1,-1 -1,-2 -2,-3z"/>
   </g>
   <path class="fil0" d="M981 217c-14,11 -26,21 -38,31 -2,2 -4,7 -3,10 3,14 5,29 9,42 1,4 7,9 10,9 14,1 29,0 46,0 -8,-31 -16,-60 -24,-92z"/>
   <path class="fil0" d="M869 309c3,-1 9,-7 9,-11 1,-7 1,-17 -3,-21 -10,-8 -23,-13 -37,-21 -5,18 -9,34 -14,53 16,0 31,1 45,0z"/>
  </g>
  <path class="fil1" d="M549 262c-2,1 -5,2 -9,3 -4,0 -8,1 -12,1 -4,1 -8,1 -12,1 -12,0 -23,-2 -31,-7 -9,-5 -16,-12 -20,-21 -5,-9 -8,-21 -8,-34 0,-11 2,-20 5,-28 3,-8 7,-15 13,-20 5,-5 11,-9 18,-11 7,-3 14,-4 22,-4 8,0 14,1 20,2 2,0 4,1 5,1 3,1 5,0 7,-1 2,-2 3,-4 3,-6l0 -30c0,-4 -3,-7 -6,-8 -4,0 -7,-1 -11,-1 -6,-1 -13,-2 -21,-2 -12,0 -24,2 -35,5 -11,3 -22,7 -31,13 -10,6 -18,13 -25,22 -8,9 -13,19 -17,31 -4,12 -6,25 -6,40 0,12 1,22 4,32 2,11 7,20 12,29 6,9 13,16 22,23 8,6 19,11 30,15 12,4 26,6 41,6 8,0 15,-1 22,-2 5,0 11,-1 15,-2 3,-1 6,-4 6,-7l0 -37c0,-1 0,-1 0,-1l-1 -2z"/>
  <path class="fil1" d="M1045 310l118 0c4,0 7,-4 7,-8l0 -30c0,-4 -3,-7 -7,-7l-61 0c-5,0 -8,-4 -8,-8l0 -149c0,-4 -3,-8 -7,-8l-42 0c-4,0 -8,4 -8,8l0 194c0,4 4,8 8,8z"/>
  <path class="fil1" d="M1201 310l117 0c5,0 8,-4 8,-8l0 -30c0,-4 -3,-7 -8,-7l-61 0c-4,0 -7,-4 -7,-8l0 -149c0,-4 -3,-8 -8,-8l-41 0c-5,0 -8,4 -8,8l0 194c0,4 3,8 8,8z"/>
  <path class="fil1" d="M15 0l173 23c8,0 15,7 15,15l-1 326c0,8 -7,14 -15,15l-172 30c-8,2 -15,-7 -15,-15l0 -379c0,-8 7,-16 15,-15zm66 310l41 0c4,0 7,-4 7,-8l0 -148c0,-5 4,-8 8,-8l36 0c4,0 7,-3 7,-7l0 -31c0,-5 -3,-8 -7,-8l-142 0c-4,0 -7,3 -7,8l0 31c0,4 3,7 7,7l35 0c4,0 7,3 7,8l0 148c0,4 4,8 8,8z"/>
  <path class="fil2" d="M38 27l36 4c7,0 13,5 13,12l0 0c0,8 -6,13 -13,13l-36 -3c-7,-1 -13,-6 -13,-13l0 0c0,-7 6,-14 13,-13z"/>
  <path class="fil0" d="M626 163c0,0 3,0 3,1 3,11 25,110 29,127 2,11 6,16 17,14 11,-2 25,7 30,-13 13,-42 26,-87 37,-130 0,0 4,0 4,1 0,14 0,128 0,147l51 0c-4,-71 -8,-141 -12,-212 -18,0 -35,1 -51,0 -12,-1 -16,4 -18,15 -9,39 -18,86 -31,124 -11,-49 -21,-94 -31,-138l-67 0c-5,71 -10,140 -14,210l46 0c2,-49 4,-98 7,-146z"/>
  <path class="fil3" d="M300 369l0 -3c0,-1 0,-2 -1,-2l-11 0c-7,0 -10,2 -10,7 0,4 3,7 9,7 7,0 12,-3 13,-9 0,0 0,0 0,0zm0 12l0 -1c0,-1 -1,-2 -2,-1 -3,2 -7,4 -12,4 -8,0 -14,-6 -14,-12 0,-7 6,-11 15,-12l12 0c1,0 1,0 1,-1l0 -1c0,-6 -3,-9 -10,-9 -4,0 -8,1 -12,3 -1,1 -1,1 -2,0l-1 -1c0,-1 0,-2 1,-3 4,-3 9,-4 15,-4 10,0 15,5 15,13l0 25c0,1 -1,1 -1,1l-3 0c-1,0 -2,0 -2,-1z"/>
  <path class="fil3" d="M335 348c-8,0 -14,6 -14,15 0,8 6,14 14,14 5,0 9,-1 12,-4 0,0 1,0 2,0l1 2c0,0 0,2 0,2 -4,4 -9,6 -15,6 -12,0 -20,-9 -20,-20 0,-12 9,-20 20,-20 6,0 11,2 14,4 1,1 1,2 0,3l-1 2c0,0 -1,0 -2,0 -3,-3 -6,-4 -11,-4z"/>
  <path class="fil3" d="M376 348c-8,0 -14,6 -14,15 0,8 6,14 14,14 5,0 8,-1 11,-4 1,0 2,0 2,0l1 2c1,0 1,2 0,2 -3,4 -8,6 -14,6 -12,0 -20,-9 -20,-20 0,-12 8,-20 20,-20 5,0 10,2 14,4 0,1 1,2 0,3l-1 2c-1,0 -2,0 -2,0 -3,-3 -7,-4 -11,-4z"/>
  <path class="fil3" d="M428 360c1,0 1,-1 1,-2 -1,-6 -6,-10 -13,-10 -7,0 -12,4 -13,10 -1,1 0,2 1,2l24 0zm5 5l-29 0c-1,0 -2,1 -1,2 1,7 7,11 14,11 4,0 8,-2 11,-4 1,-1 2,-1 2,0l1 1c1,1 1,2 0,2 -4,4 -9,6 -15,6 -11,0 -20,-9 -20,-20 0,-12 9,-20 20,-20 12,0 19,8 19,20 0,1 -1,2 -2,2z"/>
  <path class="fil3" d="M455 348c-4,0 -8,1 -8,5 0,9 23,4 23,18 0,8 -7,12 -15,12 -5,0 -10,-2 -14,-5 -1,0 -1,-1 -1,-2l1 -2c1,0 2,-1 2,0 4,2 8,4 12,4 5,0 9,-2 9,-6 0,-9 -22,-5 -22,-19 0,-7 6,-10 14,-10 4,0 8,1 11,3 1,0 1,1 1,2l-1 1c-1,1 -1,2 -2,1 -3,-1 -7,-2 -10,-2z"/>
  <path class="fil3" d="M489 348c-4,0 -7,1 -7,5 0,9 22,4 22,18 0,8 -7,12 -15,12 -5,0 -10,-2 -14,-5 -1,0 -1,-1 0,-2l0 -2c1,0 2,-1 3,0 3,2 7,4 11,4 5,0 9,-2 9,-6 0,-9 -22,-5 -22,-19 0,-7 7,-10 14,-10 4,0 8,1 11,3 1,0 1,1 1,2l-1 1c0,1 -1,2 -2,1 -3,-1 -6,-2 -10,-2z"/>
  <path class="fil3" d="M515 363c0,9 6,15 15,15 8,0 14,-6 14,-15 0,-9 -6,-15 -14,-15 -9,0 -15,6 -15,15zm35 0c0,11 -8,20 -20,20 -12,0 -20,-9 -20,-20 0,-12 8,-20 20,-20 12,0 20,8 20,20z"/>
  <path class="fil3" d="M581 345l0 2c0,1 -1,2 -2,2 -7,0 -12,5 -13,12 0,0 0,1 0,1l0 19c0,1 0,1 -1,1l-3 0c-1,0 -2,0 -2,-1l0 -36c0,-1 1,-2 2,-2l3 0c1,0 1,1 1,2l0 2c0,1 2,2 3,1 2,-3 6,-5 10,-5 1,0 2,1 2,2z"/>
  <path class="fil3" d="M594 345l0 36c0,1 0,1 -1,1l-3 0c-1,0 -1,0 -1,-1l0 -36c0,-1 0,-2 1,-2l3 0c1,0 1,1 1,2zm1 -13c0,2 -1,4 -4,4 -2,0 -3,-2 -3,-4 0,-3 1,-4 3,-4 3,0 4,1 4,4z"/>
  <path class="fil3" d="M636 360c1,0 2,-1 2,-2 -2,-6 -6,-10 -14,-10 -6,0 -12,4 -13,10 0,1 0,2 1,2l24 0zm6 5l-30 0c-1,0 -1,1 -1,2 2,7 7,11 14,11 4,0 8,-2 11,-4 1,-1 2,-1 2,0l1 1c1,1 1,2 0,2 -3,4 -9,6 -14,6 -12,0 -20,-9 -20,-20 0,-12 8,-20 19,-20 13,0 19,8 19,20 0,1 -1,2 -1,2z"/>
  <path class="fil3" d="M663 348c-4,0 -7,1 -7,5 0,9 22,4 22,18 0,8 -7,12 -15,12 -5,0 -10,-2 -14,-5 -1,0 -1,-1 0,-2l0 -2c1,0 2,-1 3,0 3,2 7,4 11,4 5,0 9,-2 9,-6 0,-9 -22,-5 -22,-19 0,-7 7,-10 14,-10 4,0 8,1 11,3 1,0 1,1 1,2l-1 1c0,1 -1,2 -2,1 -3,-1 -6,-2 -10,-2z"/>
  <path class="fil3" d="M708 344l10 28c1,2 2,2 3,0l10 -28c0,0 0,-1 1,-1l4 0c1,0 1,1 2,1l10 28c0,2 2,2 2,0l10 -28c0,0 1,-1 2,-1l2 0c2,0 2,1 2,2l-14 36c0,1 0,1 -1,1l-4 0c-1,0 -1,0 -2,-1l-9 -27c-1,-1 -3,-1 -3,0l-10 27c0,1 -1,1 -2,1l-4 0c0,0 -1,0 -1,-1l-14 -35c0,-2 1,-3 2,-3l3 0c0,0 1,1 1,1z"/>
  <path class="fil3" d="M811 358l0 23c0,1 -1,1 -2,1l-3 0c-1,0 -1,0 -1,-1l0 -21c0,-7 -4,-12 -12,-12 -8,1 -13,7 -13,15l0 18c0,1 -1,1 -2,1l-2 0c-1,0 -2,0 -2,-1l0 -52c0,-1 1,-2 2,-2l2 0c1,0 2,1 2,2l0 18c0,1 2,2 3,1 3,-3 7,-5 13,-5 9,0 15,6 15,15z"/>
  <path class="fil3" d="M826 363c0,9 6,15 14,15 8,0 14,-6 14,-15 0,-9 -6,-15 -14,-15 -8,0 -14,6 -14,15zm34 0c0,11 -8,20 -20,20 -12,0 -20,-9 -20,-20 0,-12 8,-20 20,-20 12,0 20,8 20,20z"/>
  <path class="fil3" d="M877 329l0 52c0,1 -1,1 -2,1l-2 0c-1,0 -2,0 -2,-1l0 -52c0,-1 1,-2 2,-2l2 0c1,0 2,1 2,2z"/>
  <path class="fil3" d="M919 360c1,0 2,-1 2,-2 -2,-6 -6,-10 -14,-10 -6,0 -12,4 -13,10 0,1 0,2 1,2l24 0zm6 5l-30 0c-1,0 -1,1 -1,2 2,7 7,11 14,11 4,0 8,-2 11,-4 1,-1 2,-1 2,0l1 1c1,1 1,2 0,2 -4,4 -9,6 -14,6 -12,0 -20,-9 -20,-20 0,-12 8,-20 19,-20 13,0 19,8 19,20 0,1 -1,2 -1,2z"/>
  <path class="fil3" d="M946 348c-4,0 -7,1 -7,5 0,9 22,4 22,18 0,8 -7,12 -15,12 -5,0 -10,-2 -14,-5 -1,0 -1,-1 0,-2l0 -2c1,0 2,-1 2,0 4,2 8,4 12,4 5,0 9,-2 9,-6 0,-9 -22,-5 -22,-19 0,-7 7,-10 14,-10 4,0 8,1 11,3 1,0 1,1 1,2l-1 1c0,1 -1,2 -2,1 -3,-1 -6,-2 -10,-2z"/>
  <path class="fil3" d="M995 369l0 -3c0,-1 -1,-2 -1,-2l-11 0c-7,0 -10,2 -10,7 0,4 3,7 9,7 6,0 11,-3 13,-9 0,0 0,0 0,0zm0 12l0 -1c0,-1 -1,-2 -2,-1 -3,2 -7,4 -12,4 -9,0 -14,-6 -14,-12 0,-7 6,-11 15,-12l12 0c0,0 1,0 1,-1l0 -1c0,-6 -4,-9 -11,-9 -4,0 -7,1 -11,3 -1,1 -2,1 -2,0l-1 -1c0,-1 0,-2 1,-3 4,-3 8,-4 15,-4 9,0 15,5 15,13l0 25c0,1 -1,1 -2,1l-2 0c-1,0 -2,0 -2,-1z"/>
  <path class="fil3" d="M1020 329l0 52c0,1 0,1 -1,1l-3 0c-1,0 -1,0 -1,-1l0 -52c0,-1 0,-2 1,-2l3 0c1,0 1,1 1,2z"/>
  <path class="fil3" d="M1063 360c1,0 1,-1 1,-2 -1,-6 -6,-10 -13,-10 -7,0 -12,4 -14,10 0,1 1,2 2,2l24 0zm5 5l-29 0c-1,0 -2,1 -2,2 2,7 7,11 15,11 4,0 8,-2 11,-4 0,-1 1,-1 2,0l1 1c1,1 0,2 0,2 -4,4 -9,6 -15,6 -12,0 -20,-9 -20,-20 0,-12 8,-20 20,-20 12,0 19,8 19,20 0,1 -1,2 -2,2z"/>
  <path class="fil3" d="M1128 360c1,0 2,-1 1,-2 -1,-6 -6,-10 -13,-10 -7,0 -12,4 -13,10 -1,1 0,2 1,2l24 0zm5 5l-29 0c-1,0 -2,1 -1,2 1,7 7,11 14,11 4,0 8,-2 11,-4 1,-1 2,-1 2,0l1 1c1,1 1,2 0,2 -4,4 -9,6 -15,6 -11,0 -20,-9 -20,-20 0,-12 9,-20 20,-20 13,0 19,8 19,20 0,1 -1,2 -2,2z"/>
  <path class="fil3" d="M1145 344l9 12c1,1 2,1 3,0l9 -12c0,-1 1,-1 1,-1l3 0c1,0 2,2 1,3l-11 15c0,1 0,2 0,2l12 17c1,1 0,2 -1,2l-3 0c-1,0 -1,0 -2,0l-9 -14c-1,-1 -2,-1 -3,0l-10 14c0,0 0,0 -1,0l-3 0c-1,0 -2,-1 -1,-2l12 -17c0,0 0,-1 0,-2l-11 -15c-1,-1 0,-3 1,-3l3 0c1,0 1,0 1,1z"/>
  <path class="fil3" d="M1218 363c0,-9 -6,-15 -15,-15 -8,0 -14,6 -14,15 0,8 6,14 14,14 9,0 15,-6 15,-14zm6 0c0,11 -8,20 -19,20 -6,0 -10,-2 -13,-5 -1,-2 -3,-1 -3,1l0 16c0,1 -1,2 -1,2l-3 0c-1,0 -2,-1 -2,-2l0 -50c0,-1 1,-2 2,-2l3 0c0,0 1,1 1,2l0 2c0,1 2,2 3,1 3,-3 7,-5 12,-5 12,0 20,8 20,20z"/>
  <path class="fil3" d="M1261 360c1,0 2,-1 2,-2 -1,-6 -6,-10 -13,-10 -7,0 -12,4 -14,10 0,1 1,2 2,2l23 0zm6 5l-29 0c-1,0 -2,1 -2,2 2,7 7,11 14,11 5,0 9,-2 12,-4 0,-1 1,-1 2,0l1 1c0,1 0,2 -1,2 -3,4 -8,6 -14,6 -12,0 -20,-9 -20,-20 0,-12 8,-20 20,-20 12,0 18,8 18,20 0,1 0,2 -1,2z"/>
  <path class="fil3" d="M1299 345l0 2c0,1 -1,2 -2,2 -7,0 -12,5 -13,12 0,0 0,1 0,1l0 19c0,1 0,1 -1,1l-3 0c-1,0 -2,0 -2,-1l0 -36c0,-1 1,-2 2,-2l3 0c1,0 1,1 1,2l0 2c0,1 2,2 3,1 3,-3 6,-5 10,-5 1,0 2,1 2,2z"/>
  <path class="fil3" d="M1327 378c0,1 0,2 -1,3 -2,1 -5,2 -8,2 -6,0 -10,-4 -10,-12l0 -20c0,-1 -1,-2 -1,-2l-3 0c-1,0 -2,-1 -2,-2l0 -1c0,-1 1,-2 2,-2l3 0c0,0 1,0 1,-1l0 -7c0,-1 1,-2 2,-2l2 0c1,0 2,1 2,2l0 7c0,1 1,1 1,1l10 0c1,0 2,1 2,2l0 1c0,1 -1,2 -2,2l-10 0c0,0 -1,1 -1,2l0 20c0,4 2,6 5,6 2,0 3,0 5,-1 1,0 2,0 2,1l1 1z"/>
 </g>
</svg>
