<svg id="Livello_1" data-name="Livello 1" xmlns="http://www.w3.org/2000/svg" viewBox="0 0 246.58 111.75"><defs><style>.cls-1{fill:#333333;}</style></defs><title>YOOX_logo</title><path class="cls-1" d="M1.41,1.7H16.94l7.2,23.72q0.35,1.06.71,2.33t0.85,2.75A169.61,169.61,0,0,1,31.2,52.1q1.27-8.75,2.12-12.21l2.26-9.74,0.85-3.81L42.49,1.7H57.81l-19,62.12v46.87H24.14V63.82Z" transform="translate(-1.41 -0.29)"/><path class="cls-1" d="M119.51,58.88q0,28.87-6.42,41T91.55,112Q75.67,112,69.18,99,62.75,86.2,62.75,53.58q0-29.08,6.35-41.16T90.85,0.29q13.69,0,20.33,9.39,4.38,6.28,6.35,17.86Q119.51,38.27,119.51,58.88Zm-15.39,1.55q0-28.31-2.54-37.55T91.2,13.56q-7.84,0-10.45,8.54T78.21,56.69q0,23.93,2.68,33.18,2.75,8.75,10.31,8.75t10.17-8.19Q104.12,82.32,104.12,60.43Z" transform="translate(-1.41 -0.29)"/><path class="cls-1" d="M188.62,58.88q0,28.87-6.42,41T160.66,112Q144.78,112,138.29,99q-6.42-12.78-6.42-45.39,0-29.08,6.35-41.16T160,0.29q13.69,0,20.33,9.39,4.38,6.28,6.35,17.86Q188.62,38.27,188.62,58.88Zm-15.39,1.55q0-28.31-2.54-37.55t-10.38-9.32q-7.84,0-10.45,8.54t-2.54,34.59q0,23.93,2.68,33.18,2.75,8.75,10.31,8.75t10.17-8.19Q173.23,82.32,173.23,60.43Z" transform="translate(-1.41 -0.29)"/><path class="cls-1" d="M194.34,1.7H208.6l7.55,21.11q4.45,12.49,5.29,18.28,0.78-3.6,1.73-7t2-6.78l1-3.18,7-22.45H248L227.8,55.35,248,110.69H233.16L226,89.94q-2.19-6.21-3.53-11.15A76.85,76.85,0,0,1,220.53,70a50.51,50.51,0,0,1-1.91,9l-2.47,7.76-1.27,4.09-6.28,19.77H193.07l20.61-55.34Z" transform="translate(-1.41 -0.29)"/></svg>